<!-- Generated by IcoMoon.io -->
<svg version="1.1" xmlns="http://www.w3.org/2000/svg" width="32" height="32" viewBox="0 0 32 32">
<title>accessibilite</title>
<path d="M31.448 15.31v0c-0.276-0.276-1.931-2.483-4.414-4.69-3.586-3.034-7.448-4.69-11.035-4.69-2.207 0-4.414 0.552-6.621 1.655l-3.862-3.586-1.379 1.655 3.31 3.31c-0.828 0.552-1.655 1.103-2.483 1.655-2.483 2.207-4.138 4.138-4.414 4.69l-0.552 0.552 0.552 0.552c0 0 0.276 0.276 0.552 0.552l0.276 0.276 7.448-7.448 1.103 1.103-3.034 2.759c-0.276 0.828-0.276 1.655-0.276 2.207 0 0.276 0 0.276 0 0.552v0.552l2.207-2.207c0.276-1.103 0.552-1.931 1.379-2.759l2.207 2.207c-0.276 0.552-0.276 1.103-0.276 1.655 0 0 0 0 0 0v0.552l1.379-1.379 1.103 1.103-1.931 1.931v0.276c0.276 0.552 0.828 0.828 1.379 1.103h0.276l1.655-1.655 1.103 1.103-1.103 0.828 0.828-0.276c0.276 0 0.828-0.276 1.103-0.276l2.483 2.483c-0.828 0.552-1.655 0.828-2.207 1.103l-3.31 3.034h0.552c0.828 0 1.931 0 2.759-0.276v0l2.759-2.759 1.379 1.379h0.276l3.862 3.862 1.655-1.655-3.586-3.31c0.828-0.552 1.655-1.103 2.483-1.931 2.483-2.207 4.138-4.138 4.414-4.69l0.552-0.552-0.552-0.552zM19.862 15.862c0-2.207-1.655-3.862-3.862-3.862-0.552 0-1.379 0.276-1.931 0.552l-2.207-2.207c1.103-0.828 2.759-1.379 4.138-1.379 3.862 0 7.172 3.31 7.172 7.172 0 1.379-0.552 3.034-1.379 4.138l-2.483-2.483c0.276-0.552 0.552-1.103 0.552-1.931zM25.379 15.862c0-1.655-0.552-3.586-1.379-4.966 2.483 1.655 4.414 3.862 5.241 4.966-0.828 1.103-2.759 3.034-5.241 4.69 0.828-1.379 1.379-2.759 1.379-4.69z"></path>
<path d="M4.966 18.345c-0.276-0.552-0.828-0.828-1.103-1.379h-0.276l-1.655 1.379 0.276 0.276c0.276 0.552 0.828 0.828 1.379 1.379l0.276 0.276 1.103-1.931z"></path>
<path d="M8 20.828l1.655-1.655v-0.276c-0.552-0.552-0.552-1.103-0.828-1.655v-0.552l-1.931 1.931c0.276 0.828 0.552 1.379 1.103 2.207v0 0c-0.828-0.552-1.103-1.103-1.655-1.379h-0.276l-1.379 1.379 0.276 0.276c0 0 0 0 0 0 0.276 0.276 0.828 0.552 1.379 1.103h0.276l1.379-1.379z"></path>
<path d="M11.862 21.655c-0.552-0.276-1.103-0.552-1.379-1.103l-0.276-0.276-2.759 2.759 0.276 0.276c0.552 0.276 1.103 0.552 1.655 0.828h0.276l2.207-2.483z"></path>
<path d="M15.448 23.035c-0.552 0-1.379-0.276-1.931-0.552h-0.276l-2.207 2.483h0.276c0.552 0.276 1.379 0.552 1.931 0.552v0l2.483-2.483h-0.276z"></path>
</svg>
