<!-- Generated by IcoMoon.io -->
<svg version="1.1" xmlns="http://www.w3.org/2000/svg" width="32" height="32" viewBox="0 0 32 32">
<title>accompagner-vos-clients-dans-une-procedure-judiciaire</title>
<path d="M16 1.809l-9.739 5.426-1.67 0.974-4.591 2.504 0.974 1.391 4.591-2.504h21.009l4.452 2.504 0.974-1.391-16-8.904zM8.348 8.070l7.652-4.313 7.652 4.313h-15.304z"></path>
<path d="M27.409 26.435v-3.478l-0.278-10.296h0.835v-1.67h-6.4v1.67h0.696l-0.278 9.739v3.478h-3.061v-2.922l-0.278-10.296h0.835v-1.67h-6.4v1.67h0.835l-0.278 9.739v3.478h-3.2v-2.922l-0.278-10.435h0.835v-1.53h-6.4v1.67h0.835l-0.278 9.739v3.478l-0.696 2.783h-1.948v1.53h17.391v-1.53h-13.913l0.417-1.252h19.757l0.417 1.252h-4.313v1.53h7.791v-1.53h-1.809l-0.835-2.226zM15.583 12.522h1.252l0.278 9.739h-1.809l0.278-9.739zM15.304 24.070h1.809v1.53h-1.809v-1.53zM7.096 12.522h1.252l0.278 9.739h-1.809l0.278-9.739zM6.817 24.070h1.809v1.53h-1.809v-1.53zM24.070 12.522h1.252l0.278 9.739h-1.809l0.278-9.739zM23.791 24.070h1.809v1.53h-1.809v-1.53z"></path>
</svg>
