<!-- Generated by IcoMoon.io -->
<svg version="1.1" xmlns="http://www.w3.org/2000/svg" width="32" height="32" viewBox="0 0 32 32">
<title>agenda</title>
<path d="M21.157 16.529l-6.876 6.083-2.909-3.174c-0.264 0-0.793-0.264-1.058-0.264s-0.529 0.264-0.793 0.529c-0.264 0.529-0.264 1.058 0 1.587l3.703 3.967c0.264 0.264 0.529 0.264 1.058 0.264 0 0 0 0 0 0 0.264 0 0.529 0 0.793-0.264l7.669-6.876c0.529-0.529 0.529-1.322 0-1.851-0.264-0.529-1.058-0.529-1.587 0z"></path>
<path d="M32 7.802c0-2.38-2.116-4.496-4.496-4.496h-2.645v-1.587c0-0.793-0.529-1.322-1.058-1.322s-1.322 0.529-1.322 1.322v1.587h-12.959v-1.587c0-0.793-0.529-1.322-1.322-1.322-0.529 0-1.058 0.529-1.322 1.322v5.289c0.264 0.793 0.793 1.322 1.322 1.322 0.793 0 1.322-0.529 1.322-1.322v-1.058h12.959v1.058c0 0.793 0.529 1.322 1.322 1.322s1.322-0.529 1.322-1.322v-1.058h2.38c1.058 0 1.851 0.793 1.851 1.851v2.38h-26.711v-2.38c0-1.058 0.793-1.851 1.851-1.851h0.264v-2.645h-0.264c-2.38 0-4.496 2.116-4.496 4.496v19.306c0 2.38 2.116 4.496 4.496 4.496h23.008c2.38 0 4.496-2.116 4.496-4.496v-11.107h-2.645v11.107c0 1.058-0.793 1.851-1.851 1.851h-23.008c-1.058 0-1.851-0.793-1.851-1.851v-14.281h29.355v-5.025z"></path>
</svg>
