<!-- Generated by IcoMoon.io -->
<svg version="1.1" xmlns="http://www.w3.org/2000/svg" width="32" height="32" viewBox="0 0 32 32">
<title>aide1</title>
<path d="M26.37 5.037h-13.63v1.778h13.481v-1.778zM32 15.704v-15.111h-24.889v19.111h14.37l1.63 1.185v4.296h-12.889l-0.148 0.148-4.593 3.111v-3.111h-3.704v-16.296h3.111v-1.778h-4.889v19.556h3.556v4.593l7.111-4.741h14.074v-4.741l2.667 1.778 1.333 1.037v-5.185h3.111v-1.778h-4c-0.444 0-0.889 0.444-0.889 0.889v2.519l-4.741-3.111-0.296-0.148h-13.037v-15.556h21.333v13.333h1.778zM12.741 14.815h13.481v-1.778h-13.481v1.778zM26.37 9.037h-13.63v1.778h13.481v-1.778z"></path>
</svg>
