<!-- Generated by IcoMoon.io -->
<svg version="1.1" xmlns="http://www.w3.org/2000/svg" width="32" height="32" viewBox="0 0 32 32">
<title>aide</title>
<path d="M16 0c-8.762 0-16 7.238-16 16s7.238 16 16 16c8.762 0 16-7.238 16-16s-7.238-16-16-16zM17.524 25.524h-3.048v-13.333h2.667v13.333zM17.143 9.524c-0.381 0.381-0.762 0.381-1.143 0.381s-0.762 0-1.143-0.381c-0.381-0.381-0.762-0.762-0.762-1.143s0-0.762 0.381-1.143c0.762-0.762 1.143-0.762 1.524-0.762s0.762 0 1.143 0.381c0.381 0.381 0.762 0.762 0.762 1.524 0 0.381-0.381 0.762-0.762 1.143z"></path>
</svg>
