<!-- Generated by IcoMoon.io -->
<svg version="1.1" xmlns="http://www.w3.org/2000/svg" width="32" height="32" viewBox="0 0 32 32">
<title>ajouter-kbis</title>
<path d="M21.813 11.625h-14.861v1.798h14.861v-1.798z"></path>
<path d="M15.461 18.816h-8.509v1.918h7.071c0.479-0.719 0.959-1.438 1.438-1.918v0z"></path>
<path d="M21.813 15.221h-14.861v1.918h11.026c1.198-0.599 2.397-0.839 3.835-0.839 0 0 0 0 0 0v-1.079z"></path>
<path d="M21.813 32c-3.715 0-6.831-3.116-6.831-6.831s3.116-6.831 6.831-6.831c3.715 0 6.831 3.116 6.831 6.831s-3.116 6.831-6.831 6.831zM21.813 20.135c-2.757 0-5.034 2.277-5.034 5.034s2.277 5.034 5.034 5.034c2.757 0 5.034-2.277 5.034-5.034s-2.277-5.034-5.034-5.034z"></path>
<path d="M24.689 24.449v1.558h-2.037v2.037h-1.558v-2.037h-2.157v-1.558h2.037v-2.037h1.558v2.037h2.157z"></path>
<path d="M3.356 0v1.918h20.135v14.502c0.599 0.12 1.318 0.36 1.798 0.599v-17.019h-21.933z"></path>
<path d="M7.071 29.243h6.712c-0.24-0.599-0.479-1.198-0.719-1.798h-5.992v1.798z"></path>
<path d="M5.154 26.247v0-22.532h-1.798v25.528h1.798z"></path>
<path d="M9.828 25.648c-0.719 0-0.719-0.839-0.839-1.438 0-0.24-0.12-0.719-0.12-0.959-0.24 0.24-0.479 0.959-0.719 1.678l-0.839-0.24c0.12-0.479 0.599-1.918 1.198-2.277 0.24-0.12 0.479-0.12 0.599 0 0.599 0.24 0.719 0.959 0.719 1.798 0 0.12 0 0.36 0.12 0.599 0.12-0.12 0.12-0.24 0.24-0.24 0.24-0.36 0.599-0.839 1.318-0.839 0.24 0 0.479 0.12 0.719 0.24 0.479 0.479 0.479 1.198 0.479 1.438l-0.959-0.24c0-0.24-0.12-0.599-0.24-0.719-0.24 0-0.479 0.24-0.599 0.479-0.24 0.36-0.599 0.719-1.079 0.719z"></path>
<path d="M10.906 8.389h-1.438l-0.719-1.199-0.36 0.36v0.839h-1.199v-3.476h1.199v1.318l1.079-1.318h1.318l-1.198 1.318 1.318 2.157z"></path>
<path d="M14.022 5.034c0.24 0.12 0.36 0.12 0.479 0.36 0.12 0.12 0.12 0.24 0.12 0.479 0 0.12 0 0.36-0.12 0.479 0 0-0.24 0.12-0.36 0.12 0.24 0 0.36 0.12 0.479 0.36 0.12 0.12 0.24 0.36 0.24 0.599s0 0.36-0.12 0.479c-0.24 0.12-0.36 0.24-0.599 0.36s-0.479 0.12-0.719 0.12h-1.918v-3.476h1.798c0.36 0 0.599 0 0.719 0.12zM13.423 6.112c0 0 0.12-0.12 0.12-0.24s0-0.12-0.12-0.12c0 0-0.12-0.12-0.24-0.12h-0.479v0.479h0.599c0 0.12 0.12 0.12 0.12 0zM13.543 7.431c0.12 0 0.12-0.12 0.12-0.24s0-0.12-0.12-0.24c-0.12 0-0.12-0.12-0.24-0.12h-0.599v0.479h0.599c0.12 0.24 0.12 0.24 0.24 0.12z"></path>
<path d="M15.82 4.914h1.199v3.476h-1.198v-3.476z"></path>
<path d="M19.775 5.753c-0.24-0.12-0.479-0.12-0.599-0.12s-0.24 0-0.24 0.12c0 0.12 0 0.12 0.12 0.24 0.12 0 0.24 0.12 0.479 0.12 0.24 0.12 0.479 0.12 0.599 0.24s0.36 0.24 0.479 0.36c0.12 0.12 0.24 0.36 0.24 0.599s-0.12 0.479-0.24 0.599c-0.12 0.24-0.24 0.36-0.479 0.479s-0.479 0.12-0.719 0.12c-0.36 0-0.599 0-0.959-0.12s-0.599-0.24-0.839-0.479l0.479-0.839c0.12 0.12 0.36 0.24 0.719 0.36 0.24 0.12 0.479 0.12 0.719 0.12 0.12 0 0.12 0 0.24 0 0 0 0.12-0.12 0.12-0.12 0-0.12 0-0.12-0.12-0.24-0.12 0-0.24-0.12-0.479-0.12-0.24-0.12-0.479-0.12-0.599-0.24s-0.36-0.12-0.479-0.36c-0.12-0.12-0.24-0.36-0.24-0.599s0.12-0.479 0.24-0.599c0.12-0.12 0.24-0.36 0.479-0.36 0.12-0.12 0.36-0.12 0.599-0.12s0.599 0 0.839 0.12c0.24 0.12 0.479 0.12 0.719 0.36l-0.479 0.839c-0.12-0.12-0.36-0.24-0.599-0.36z"></path>
</svg>
