<!-- Generated by IcoMoon.io -->
<svg version="1.1" xmlns="http://www.w3.org/2000/svg" width="32" height="32" viewBox="0 0 32 32">
<title>ajouter-rib</title>
<path d="M14.961 17.299h-2.805v1.662h2.805v-1.662z"></path>
<path d="M11.013 17.299h-2.701v1.662h2.701v-1.662z"></path>
<path d="M7.169 17.299h-2.701v1.662h2.701v-1.662z"></path>
<path d="M22.649 10.13h-9.662v1.558h9.662v-1.558z"></path>
<path d="M9.143 13.662c-0.208 0.208-0.416 0.312-0.623 0.416-0.104 0.104-0.416 0.208-0.623 0.208-0.416 0-0.831-0.208-1.039-0.52h1.662v-1.039h-1.974c0-0.104 0-0.104 0-0.208s0-0.104 0-0.104h1.974v-0.935h-1.766c0.104-0.208 0.208-0.312 0.416-0.416s0.416-0.208 0.727-0.208c0.312 0 0.519 0 0.727 0.104s0.416 0.208 0.623 0.52l0.104 0.104 0.727-0.935-0.104-0.104c-0.52-0.623-1.247-0.935-2.078-0.935-0.623 0-1.143 0.208-1.558 0.52s-0.727 0.831-0.935 1.351h-0.831v0.935h0.727c0 0 0 0.104 0 0.104 0 0.104 0 0.208 0 0.208h-0.727v0.935h0.935c0.208 0.52 0.519 0.935 0.935 1.247s0.935 0.52 1.558 0.52c0.831 0 1.455-0.312 1.974-0.935l0.104-0.104-0.935-0.727z"></path>
<path d="M18.805 17.299h-2.701v1.662h2.494c0.104-0.312 0.208-0.623 0.312-0.935v-0.727h-0.104z"></path>
<path d="M22.649 13.247h-9.766v1.662h7.896c0.52-0.52 1.143-0.935 1.766-1.247v-0.416h0.104z"></path>
<path d="M26.078 26.649c-3.221 0-5.922-2.701-5.922-5.922s2.701-5.922 5.922-5.922c3.221 0 5.922 2.701 5.922 5.922s-2.597 5.922-5.922 5.922zM26.078 16.364c-2.39 0-4.364 1.974-4.364 4.364s1.974 4.364 4.364 4.364c2.39 0 4.364-1.974 4.364-4.364s-1.974-4.364-4.364-4.364z"></path>
<path d="M28.571 20v1.351h-1.766v1.766h-1.351v-1.766h-1.766v-1.351h1.766v-1.766h1.351v1.766h1.766z"></path>
<path d="M3.221 21.558v1.558h15.481c-0.208-0.52-0.312-1.039-0.312-1.558h-15.169z"></path>
<path d="M25.558 6.909h1.558v-1.558h-27.117v17.87h1.558v-16.312h24z"></path>
<path d="M25.558 8.571v4.364c0.208 0 0.416 0 0.52 0 0.312 0 0.727 0 1.039 0.104v-4.468h-1.558z"></path>
</svg>
