<!-- Generated by IcoMoon.io -->
<svg version="1.1" xmlns="http://www.w3.org/2000/svg" width="32" height="32" viewBox="0 0 32 32">
<title>ajouter-un-nouvel-enfant</title>
<path d="M19.172 1.448c-3.862 0-6.897 3.035-6.897 6.897s3.034 6.897 6.897 6.897 6.897-3.034 6.897-6.897-3.172-6.897-6.897-6.897zM19.172 13.172c-2.621 0-4.828-2.207-4.828-4.828s2.207-4.828 4.828-4.828c2.621 0 4.828 2.207 4.828 4.828s-2.207 4.828-4.828 4.828z"></path>
<path d="M16 28.345h11.586v-2.069h-10.483c-0.276 0.828-0.69 1.379-1.103 2.069z"></path>
<path d="M25.379 16.759h-9.517c0.414 0.69 0.828 1.241 1.241 2.069h8.414c2.483 0 4.552 2.069 4.552 4.552v4.966h1.931v-4.966c0-3.724-3.035-6.621-6.621-6.621z"></path>
<path d="M7.862 30.552c-4.276 0-7.862-3.586-7.862-7.862s3.586-7.862 7.862-7.862c4.276 0 7.862 3.586 7.862 7.862s-3.586 7.862-7.862 7.862zM7.862 16.759c-3.172 0-5.793 2.621-5.793 5.793s2.621 5.793 5.793 5.793c3.172 0 5.793-2.621 5.793-5.793s-2.621-5.793-5.793-5.793z"></path>
<path d="M11.172 21.724v1.793h-2.345v2.345h-1.931v-2.345h-2.345v-1.793h2.345v-2.345h1.793v2.345h2.483z"></path>
</svg>
