<!-- Generated by IcoMoon.io -->
<svg version="1.1" xmlns="http://www.w3.org/2000/svg" width="32" height="32" viewBox="0 0 32 32">
<title>ajouter-enfant-agence</title>
<path d="M6.538 6.079h21.333v1.835h-21.333v-1.835z"></path>
<path d="M8.602 3.097h17.204v1.835h-17.204v-1.835z"></path>
<path d="M17.319 18.925c1.376 0 2.409-1.147 2.409-2.409s-1.147-2.409-2.409-2.409-2.409 1.147-2.409 2.409 1.032 2.409 2.409 2.409zM16.057 16.401c0-0.688 0.573-1.147 1.147-1.147 0.688 0 1.147 0.573 1.147 1.147 0 0.688-0.573 1.147-1.147 1.147s-1.147-0.459-1.147-1.147z"></path>
<path d="M14.566 23.742h4.817v-1.262h-4.588c0 0.344-0.115 0.803-0.229 1.262z"></path>
<path d="M20.072 19.498h-5.505c0 0 0 0 0 0 0.115 0.459 0.229 0.803 0.229 1.262h5.276c0.573 0 1.032 0.459 1.032 1.032v1.95h1.262v-1.835c0-1.376-1.032-2.409-2.294-2.409z"></path>
<path d="M30.050 12.846l-1.262 14.337h-15.943c-0.573 0.688-1.262 1.262-2.064 1.72h18.237c0.803 0 1.491-0.688 1.606-1.491l1.376-14.681h-1.95z"></path>
<path d="M25.577 11.011v0h6.423c0-0.459-0.115-0.918-0.459-1.262s-0.688-0.573-1.147-0.573h-26.38c-0.459 0-0.918 0.229-1.147 0.573s-0.459 0.803-0.459 1.262l0.344 3.441c0.574-0.229 1.147-0.459 1.72-0.688l-0.229-2.753h21.333z"></path>
<path d="M6.538 28.33c-3.556 0-6.538-2.867-6.538-6.538s2.982-6.538 6.538-6.538c3.556 0 6.538 2.982 6.538 6.538s-2.982 6.538-6.538 6.538zM6.538 16.975c-2.638 0-4.817 2.179-4.817 4.817s2.179 4.817 4.817 4.817c2.638 0 4.817-2.179 4.817-4.817s-2.179-4.817-4.817-4.817z"></path>
<path d="M9.29 20.989v1.606h-1.95v1.95h-1.606v-1.95h-1.95v-1.491h1.95v-1.95h1.491v1.95h2.064z"></path>
</svg>
