<!-- Generated by IcoMoon.io -->
<svg version="1.1" xmlns="http://www.w3.org/2000/svg" width="32" height="32" viewBox="0 0 32 32">
<title>ajouter-extrait-acte-naissance</title>
<path d="M21.813 32c-3.715 0-6.831-3.116-6.831-6.831s3.116-6.831 6.831-6.831c3.715 0 6.831 3.116 6.831 6.831s-3.116 6.831-6.831 6.831zM21.813 20.135c-2.757 0-5.034 2.277-5.034 5.034s2.277 5.034 5.034 5.034c2.757 0 5.034-2.277 5.034-5.034s-2.277-5.034-5.034-5.034z"></path>
<path d="M24.689 24.449v1.558h-2.037v2.037h-1.558v-2.037h-2.157v-1.558h2.037v-2.037h1.558v2.037h2.157z"></path>
<path d="M3.356 0v1.918h20.135v14.502c0.599 0.12 1.318 0.36 1.798 0.599v-17.019h-21.933z"></path>
<path d="M7.071 29.243h6.712c-0.24-0.599-0.479-1.198-0.719-1.798h-5.992v1.798z"></path>
<path d="M5.154 26.247v0-22.532h-1.798v25.528h1.798z"></path>
<path d="M20.135 11.266c-0.12-2.397-2.037-4.195-4.434-4.195h-0.719v4.315h-4.914c-0.12-1.438-0.959-2.397-2.037-2.397h-1.199v1.079h1.199c0.479 0 0.839 0.599 0.839 1.198v0.839c0.12 1.798 1.079 3.356 2.517 4.075-0.479 0.479-0.839 1.079-0.839 1.678 0 0.959 0.839 1.798 1.798 1.798s1.798-0.839 1.798-1.798c0-0.36-0.12-0.719-0.24-0.959h0.959c-0.24 0.24-0.24 0.599-0.24 0.959 0 0.959 0.839 1.798 1.798 1.798s1.798-0.839 1.798-1.798c0-0.599-0.24-1.079-0.719-1.438 1.558-0.839 2.637-2.637 2.637-4.554v-0.599zM12.944 17.858c0 0.36-0.24 0.599-0.599 0.599s-0.599-0.24-0.599-0.599 0.24-0.599 0.599-0.599c0.36 0 0.599 0.24 0.599 0.599zM16.3 11.266v-2.876c1.438 0.24 2.517 1.438 2.517 2.876h-2.517zM18.817 12.584c-0.24 1.798-1.558 2.996-3.116 2.996h-2.397c-1.558 0-2.876-1.318-3.116-2.996h8.629zM17.019 17.858c0 0.36-0.24 0.599-0.599 0.599s-0.599-0.24-0.599-0.599 0.24-0.599 0.599-0.599 0.599 0.24 0.599 0.599z"></path>
</svg>
