<!-- Generated by IcoMoon.io -->
<svg version="1.1" xmlns="http://www.w3.org/2000/svg" width="32" height="32" viewBox="0 0 32 32">
<title>ajouter-piece-identite</title>
<path d="M8.13 14.176c1.355 0 2.397-1.042 2.397-2.397s-1.042-2.397-2.397-2.397-2.397 1.042-2.397 2.397 1.147 2.397 2.397 2.397zM7.296 11.778c0-0.417 0.417-0.834 0.834-0.834s0.834 0.417 0.834 0.834-0.313 0.834-0.834 0.834c-0.417 0-0.834-0.417-0.834-0.834z"></path>
<path d="M10.319 14.697h-4.274c-1.251 0-2.397 1.042-2.397 2.397v1.876h5.837v-1.564h-4.169v-0.313c0-0.417 0.313-0.73 0.73-0.73h4.274c0.417 0 0.73 0.313 0.73 0.73v1.876h1.564v-1.876c0-1.355-1.042-2.397-2.293-2.397z"></path>
<path d="M23.349 10.736h-8.964v1.668h8.964v-1.668z"></path>
<path d="M19.388 17.094h-5.003v1.668h4.378c0.104-0.625 0.417-1.147 0.625-1.668v0z"></path>
<path d="M22.932 13.863h-8.443v1.668h6.15c0.625-0.625 1.355-1.251 2.293-1.668v0z"></path>
<path d="M26.059 26.788c-3.231 0-5.941-2.71-5.941-5.941s2.71-5.941 5.941-5.941c3.231 0 5.941 2.71 5.941 5.941s-2.71 5.941-5.941 5.941zM26.059 16.469c-2.397 0-4.378 1.98-4.378 4.378s1.98 4.378 4.378 4.378c2.397 0 4.378-1.98 4.378-4.378s-1.98-4.378-4.378-4.378z"></path>
<path d="M28.56 20.117v1.355h-1.772v1.772h-1.355v-1.772h-1.772v-1.355h1.772v-1.772h1.355v1.772h1.772z"></path>
<path d="M25.642 8.443v4.795c0.104 0 0.313 0 0.417 0 0.417 0 0.834 0 1.147 0.104v-4.899h-1.564z"></path>
<path d="M3.231 21.472v1.564h15.531c-0.208-0.521-0.313-1.042-0.313-1.564h-15.218z"></path>
<path d="M0 5.212v17.928h1.564v-16.365h25.642v-1.564z"></path>
</svg>
