<!-- Generated by IcoMoon.io -->
<svg version="1.1" xmlns="http://www.w3.org/2000/svg" width="32" height="32" viewBox="0 0 32 32">
<title>ajouter-un-document</title>
<path d="M21.813 32c-3.715 0-6.831-3.116-6.831-6.831s3.116-6.831 6.831-6.831c3.715 0 6.831 3.116 6.831 6.831s-3.116 6.831-6.831 6.831zM21.813 20.135c-2.757 0-5.034 2.277-5.034 5.034s2.277 5.034 5.034 5.034c2.757 0 5.034-2.277 5.034-5.034s-2.277-5.034-5.034-5.034z"></path>
<path d="M24.689 24.449v1.558h-2.037v2.037h-1.558v-2.037h-2.157v-1.558h2.037v-2.037h1.558v2.037h2.157z"></path>
<path d="M5.273 27.326v-23.491h-1.918v25.288h11.026c-0.36-0.599-0.599-1.198-0.719-1.918h-8.389z"></path>
<path d="M23.97 6.592l-6.592-6.592h-14.022v1.918h11.625v8.389h8.629v6.712c0.599 0.12 1.318 0.36 1.918 0.599v-9.588l-1.558-1.438zM16.779 8.27v-6.232l6.232 6.232h-6.232z"></path>
</svg>
