<!-- Generated by IcoMoon.io -->
<svg version="1.1" xmlns="http://www.w3.org/2000/svg" width="32" height="32" viewBox="0 0 32 32">
<title>ajouter-autorisation-travail</title>
<path d="M21.813 32c-3.715 0-6.831-3.116-6.831-6.831s3.116-6.831 6.831-6.831c3.715 0 6.831 3.116 6.831 6.831s-3.116 6.831-6.831 6.831zM21.813 20.135c-2.757 0-5.034 2.277-5.034 5.034s2.277 5.034 5.034 5.034c2.757 0 5.034-2.277 5.034-5.034s-2.277-5.034-5.034-5.034z"></path>
<path d="M24.689 24.449v1.558h-2.037v2.037h-1.558v-2.037h-2.157v-1.558h2.037v-2.037h1.558v2.037h2.157z"></path>
<path d="M3.356 0v1.918h20.135v14.502c0.599 0.12 1.318 0.36 1.798 0.599v-17.019h-21.933z"></path>
<path d="M7.071 29.243h6.712c-0.24-0.599-0.479-1.198-0.719-1.798h-5.992v1.798z"></path>
<path d="M5.154 26.247v0-22.532h-1.798v25.528h1.798z"></path>
<path d="M17.858 8.749l-5.273 5.393-2.277-2.637-1.318 1.678 3.595 4.075 6.712-6.712z"></path>
</svg>
