<!-- Generated by IcoMoon.io -->
<svg version="1.1" xmlns="http://www.w3.org/2000/svg" width="32" height="32" viewBox="0 0 32 32">
<title>ajouter_agrement-prefectoral</title>
<path d="M21.813 11.625h-14.861v1.798h14.861v-1.798z"></path>
<path d="M13.303 22.412h-6.352v1.918h5.873c0.12-0.719 0.24-1.318 0.479-1.918v0z"></path>
<path d="M15.461 18.816h-8.509v1.918h7.071c0.479-0.719 0.959-1.438 1.438-1.918v0z"></path>
<path d="M21.813 15.221h-14.861v1.918h11.026c1.198-0.599 2.397-0.839 3.835-0.839 0 0 0 0 0 0v-1.079z"></path>
<path d="M21.813 32c-3.715 0-6.831-3.116-6.831-6.831s3.116-6.831 6.831-6.831c3.715 0 6.831 3.116 6.831 6.831s-3.116 6.831-6.831 6.831zM21.813 20.135c-2.757 0-5.034 2.277-5.034 5.034s2.277 5.034 5.034 5.034c2.757 0 5.034-2.277 5.034-5.034s-2.277-5.034-5.034-5.034z"></path>
<path d="M24.689 24.449v1.558h-2.037v2.037h-1.558v-2.037h-2.157v-1.558h2.037v-2.037h1.558v2.037h2.157z"></path>
<path d="M3.356 0v1.918h3.596v7.67l3.835-2.397 3.715 2.277v-7.551h8.989v14.502c0.599 0.12 1.318 0.36 1.798 0.599v-17.019h-21.933zM12.704 6.112l-1.798-1.079-2.037 1.199v-4.195h3.835v4.075z"></path>
<path d="M7.071 29.243h6.712c-0.24-0.599-0.479-1.198-0.719-1.798h-5.992v1.798z"></path>
<path d="M5.154 26.247v0-22.532h-1.798v25.528h1.798z"></path>
</svg>
