<!-- Generated by IcoMoon.io -->
<svg version="1.1" xmlns="http://www.w3.org/2000/svg" width="32" height="32" viewBox="0 0 32 32">
<title>alerte-incomplet</title>
<path d="M16 0c-8.836 0-16 7.164-16 16s7.164 16 16 16 16-7.164 16-16c0-8.836-7.164-16-16-16zM17.433 24.358c-0.478 0.478-0.955 0.716-1.433 0.716s-1.194-0.239-1.672-0.716c-0.478-0.478-0.716-0.955-0.716-1.433s0.478-1.194 0.716-1.672c0.478-0.478 0.955-0.716 1.433-0.716s1.194 0.239 1.433 0.716c0.478 0.478 0.716 0.955 0.716 1.433s0 1.433-0.478 1.672zM18.149 10.030l-0.716 8.597h-2.866l-0.716-8.597v-3.104h4.298v3.104z"></path>
</svg>
