<!-- Generated by IcoMoon.io -->
<svg version="1.1" xmlns="http://www.w3.org/2000/svg" width="32" height="32" viewBox="0 0 32 32">
<title>arrow-double-right</title>
<path d="M17.191 1.599c-0.237 0-0.505 0.115-0.683 0.289l-1.484 1.443c-0.178 0.173-0.291 0.433-0.291 0.664s0.113 0.491 0.291 0.664l11.663 11.341-11.663 11.341c-0.178 0.173-0.291 0.433-0.291 0.664 0 0.26 0.113 0.491 0.291 0.664l1.484 1.443c0.178 0.173 0.445 0.289 0.683 0.289s0.504-0.115 0.683-0.289l13.829-13.448c0.178-0.173 0.297-0.433 0.297-0.664s-0.119-0.491-0.297-0.664l-13.829-13.448c-0.178-0.173-0.445-0.289-0.683-0.289zM2.458 1.599c-0.237 0-0.504 0.115-0.683 0.289l-1.484 1.443c-0.178 0.173-0.291 0.433-0.291 0.664s0.113 0.491 0.291 0.664l11.663 11.341-11.663 11.341c-0.178 0.173-0.291 0.433-0.291 0.664 0 0.26 0.113 0.491 0.291 0.664l1.484 1.443c0.178 0.173 0.445 0.289 0.682 0.289s0.505-0.115 0.683-0.289l13.829-13.448c0.178-0.173 0.297-0.433 0.297-0.664s-0.119-0.491-0.297-0.664l-13.829-13.448c-0.178-0.173-0.445-0.289-0.683-0.289z"></path>
</svg>
