<!-- Generated by IcoMoon.io -->
<svg version="1.1" xmlns="http://www.w3.org/2000/svg" width="32" height="32" viewBox="0 0 32 32">
<title>arrow-double-left</title>
<path d="M14.809 30.401c0.237 0 0.505-0.115 0.683-0.289l1.484-1.443c0.178-0.173 0.291-0.433 0.291-0.664s-0.113-0.491-0.291-0.664l-11.663-11.341 11.663-11.341c0.178-0.173 0.291-0.433 0.291-0.664 0-0.26-0.113-0.491-0.291-0.664l-1.484-1.443c-0.178-0.173-0.445-0.289-0.683-0.289s-0.504 0.115-0.683 0.289l-13.829 13.448c-0.178 0.173-0.297 0.433-0.297 0.664s0.119 0.491 0.297 0.664l13.829 13.448c0.178 0.173 0.445 0.289 0.683 0.289zM29.542 30.401c0.237 0 0.504-0.115 0.683-0.289l1.484-1.443c0.178-0.173 0.291-0.433 0.291-0.664s-0.113-0.491-0.291-0.664l-11.663-11.341 11.663-11.341c0.178-0.173 0.291-0.433 0.291-0.664 0-0.26-0.113-0.491-0.291-0.664l-1.484-1.443c-0.178-0.173-0.445-0.289-0.683-0.289s-0.505 0.115-0.683 0.289l-13.829 13.448c-0.178 0.173-0.297 0.433-0.297 0.664s0.119 0.491 0.297 0.664l13.829 13.448c0.178 0.173 0.445 0.289 0.683 0.289z"></path>
</svg>
