<!-- Generated by IcoMoon.io -->
<svg version="1.1" xmlns="http://www.w3.org/2000/svg" width="32" height="32" viewBox="0 0 32 32">
<title>attention</title>
<path d="M16.038 2.014c-1.216 0-2.128 0.608-2.736 1.52-4.257 7.297-8.513 14.898-13.074 22.195-0.304 0.912-0.304 1.824 0 2.736 0.608 1.216 1.824 1.52 2.736 1.52h25.843c0.912 0 2.128-0.304 2.736-1.52 0.608-0.912 0.608-1.824 0-2.736-4.561-7.601-8.817-14.898-13.074-22.195-0.608-0.912-1.52-1.52-2.432-1.52zM16.038 4.447c0 0 0.304 0 0.304 0.304l13.074 22.195c0 0 0 0.304 0 0.304s-0.304 0.304-0.608 0.304h-25.843c0 0-0.608-0.304-0.608-0.304s0-0.304 0-0.304l13.074-22.195c0-0.304 0.304-0.304 0.608-0.304zM16.038 10.527c-0.912 0-1.824 0.608-1.824 1.52l0.304 7.297c0.304 0.608 0.608 0.912 1.52 0.912 0.608 0 1.216-0.608 1.216-1.216l0.304-7.297c0-0.608-0.912-1.216-1.52-1.216zM16.038 22.385c-1.216 0-2.128 0.912-2.128 2.128 0 0.912 0.912 1.824 2.128 1.824s2.128-0.912 2.128-2.128c-0.304-0.912-1.216-1.824-2.128-1.824z"></path>
</svg>
