<!-- Generated by IcoMoon.io -->
<svg version="1.1" xmlns="http://www.w3.org/2000/svg" width="32" height="32" viewBox="0 0 32 32">
<title>back</title>
<path d="M31.719 14.597h-19.93l4.772-5.053-1.965-1.403-6.456 7.018c0 0-0.561 0.561-0.561 0.561v0.281l0.281 0.281c0 0 0.281 0.561 0.561 0.561l6.456 7.018 1.684-1.684-4.772-5.053h17.404c-0.561 6.737-6.456 12.070-13.474 12.070-7.298 0-13.474-5.895-13.474-13.474s6.175-13.193 13.754-13.193c5.614 0 10.667 3.649 12.632 8.982h2.526c-1.965-6.737-8.14-11.509-15.158-11.509-8.982 0-16 7.018-16 16s7.018 16 16 16 16-7.018 16-16c0-0.281 0-0.561 0-0.842l-0.281-0.561z"></path>
</svg>
