<!-- Generated by IcoMoon.io -->
<svg version="1.1" xmlns="http://www.w3.org/2000/svg" width="32" height="32" viewBox="0 0 32 32">
<title>calendrier</title>
<path d="M32 0.982v0h-25.263v3.088h22.175v23.86h-25.825v-21.053h-3.088v24.14h32v-30.035z"></path>
<path d="M14.877 7.158h4.21v4.21h-4.21v-4.21z"></path>
<path d="M21.614 7.158h4.21v4.21h-4.21v-4.21z"></path>
<path d="M14.877 13.614h4.21v4.21h-4.21v-4.21z"></path>
<path d="M21.614 13.614h4.21v4.21h-4.21v-4.21z"></path>
<path d="M14.877 20.070h4.21v4.21h-4.21v-4.21z"></path>
<path d="M6.737 7.158h4.21v4.21h-4.21v-4.21z"></path>
<path d="M6.737 13.614h4.21v4.21h-4.21v-4.21z"></path>
<path d="M6.737 20.070h4.21v4.21h-4.21v-4.21z"></path>
<path d="M21.614 20.070h4.21v4.21h-4.21v-4.21z"></path>
</svg>
