<!-- Generated by IcoMoon.io -->
<svg version="1.1" xmlns="http://www.w3.org/2000/svg" width="32" height="32" viewBox="0 0 32 32">
<title>carte-de-credit</title>
<path d="M28.073 5.964h3.927v-1.164c0-0.582-0.582-1.164-1.164-1.164h-29.673c-0.582 0-1.164 0.582-1.164 1.164v23.564h27.491c2.473 0 4.509-2.036 4.509-4.509v-15.418h-29.673v-2.473h25.745zM29.673 11.055v12.8c0 1.309-1.018 2.182-2.182 2.182h-25.309c0 0 0-1.455 0-2.182v-12.8h27.491z"></path>
<path d="M20.8 22.691c0.727 0 1.309-0.291 1.6-0.873 0.291 0.582 0.873 0.873 1.6 0.873 1.018 0 1.891-0.873 1.891-1.891s-0.873-1.891-1.891-1.891c-0.727 0-1.309 0.291-1.6 0.873-0.291-0.582-0.873-0.873-1.6-0.873-1.018 0-1.891 0.873-1.891 1.891 0.145 1.018 0.873 1.891 1.891 1.891z"></path>
</svg>
