<!-- Generated by IcoMoon.io -->
<svg version="1.1" xmlns="http://www.w3.org/2000/svg" width="32" height="32" viewBox="0 0 32 32">
<title>cheque</title>
<path d="M0 27.068h25.577c1.95 0 3.556-1.606 3.556-3.556v-10.437l-1.835 1.835v8.602c0 1.032-0.803 1.72-1.72 1.72h-23.742c0 0 0-1.147 0-1.72v-12.502h18.007l1.835-1.835h-20.76c-0.459 0.115-0.918 0.573-0.918 0.918v16.975z"></path>
<path d="M5.505 18.237v-0.803h1.032c0.229-0.688 0.573-1.262 1.147-1.606 0.573-0.459 1.147-0.573 1.835-0.573 1.032 0 1.835 0.344 2.409 1.147l-0.688 0.918c-0.229-0.344-0.573-0.459-0.803-0.688-0.229-0.344-0.573-0.344-0.918-0.344s-0.688 0.115-1.032 0.344c-0.344 0.229-0.573 0.459-0.688 0.803h2.294v0.803h-2.523c0 0.115 0 0.229 0 0.344s0 0.344 0 0.459h2.523v0.803h-2.179c0.344 0.688 0.918 1.032 1.606 1.032 0.344 0 0.688-0.115 0.918-0.229s0.459-0.344 0.803-0.573l0.688 0.803c-0.573 0.688-1.376 1.147-2.409 1.147-0.688 0-1.262-0.229-1.835-0.573s-0.918-0.918-1.147-1.606h-1.032v-0.803h0.918c0-0.115 0-0.344 0-0.459s0-0.229 0-0.344h-0.918z"></path>
<path d="M23.168 10.667l-1.262 1.147 1.376-1.376z"></path>
<path d="M21.333 18.351l0.229-0.115c0.115 0 0.115-0.115 0.229-0.115l6.194-6.194 1.376-1.262 0.918-0.918-0.918-0.918-0.688 0.688-1.147-1.147 1.376-1.376 1.147 1.147c0 0 0.115 0.115 0.115 0.115l0.803 0.803 1.032-1.032-1.147-1.147-2.065-1.95-4.244 4.244-5.964 6.079c0 0 0 0.115 0 0.115v0l-1.147 3.441c-0.115 0.344 0.115 0.573 0.344 0.688 0 0 0.115 0 0.229 0l3.326-1.147zM19.154 17.663l0.344-1.147 0.803 0.803-1.147 0.344zM27.183 10.896l-5.276 5.276-1.262-1.262 5.276-5.276 1.262 1.262z"></path>
</svg>
