<!-- Generated by IcoMoon.io -->
<svg version="1.1" xmlns="http://www.w3.org/2000/svg" width="32" height="32" viewBox="0 0 32 32">
<title>citation</title>
<path d="M15.17 4.978h-6.756l-6.4 9.363c-1.304 1.896-2.015 3.793-2.015 5.807s0.711 3.674 2.015 4.859c1.304 1.304 3.082 1.896 4.978 1.896 2.015 0 3.674-0.593 4.978-1.896s2.015-3.081 2.015-5.215c0-2.252-1.067-4.030-3.082-5.333l4.267-9.482zM32 4.978h-6.756l-6.518 9.363c-1.304 1.896-2.015 3.911-2.015 5.926s0.711 3.674 2.015 4.859c1.304 1.304 3.081 1.896 4.978 1.896 2.015 0 3.674-0.593 4.978-1.896s2.015-3.081 2.015-5.215c0-2.252-1.067-4.030-3.082-5.333l4.385-9.6z"></path>
</svg>
