<!-- Generated by IcoMoon.io -->
<svg version="1.1" xmlns="http://www.w3.org/2000/svg" width="32" height="32" viewBox="0 0 32 32">
<title>confier-des-sommes-non-reclamees</title>
<path d="M15.228 11.943c0.306-0.306 0.766-0.306 1.225-0.306s0.919 0 1.225 0.153c0.306 0.153 0.612 0.459 0.919 0.766l0.766-1.072c-0.766-0.919-1.684-1.378-2.909-1.378-0.919 0-1.531 0.306-2.297 0.766-0.612 0.612-1.072 1.225-1.225 2.144h-1.225v1.072h1.072c0 0.153 0 0.153 0 0.459 0 0.153 0 0.306 0 0.612h-1.072v1.072h1.225c0.306 0.766 0.766 1.378 1.378 1.837s1.378 0.766 2.144 0.766c1.225 0 2.144-0.459 2.909-1.378l-0.766-1.072c-0.306 0.306-0.612 0.612-0.919 0.766s-0.612 0.306-1.072 0.306c-0.919 0-1.531-0.459-1.99-1.225h2.756v-1.225h-3.062c0-0.153 0-0.306 0-0.612 0-0.153 0-0.306 0-0.459h3.062v-0.919h-2.909c0.153-0.459 0.459-0.766 0.766-1.072z"></path>
<path d="M31.151 18.067c-0.153-0.612-0.612-1.072-1.225-1.225-1.225-0.459-2.603-0.306-3.828 0.153v-6.737c0-0.306-0.153-0.766-0.306-1.072-0.612-0.919-2.297-1.837-4.593-2.909l2.144-2.909c0.459-0.612 0.459-1.531 0-2.144s-1.225-0.919-1.99-0.766l-0.459 0.153c-1.531 0.459-2.756 0.612-3.522 0-0.459-0.459-1.072-0.612-1.531-0.612-0.919 0-1.531 0.612-1.684 0.766-0.766 0.766-1.837 0.459-3.522 0l-0.459-0.153c-0.766-0.153-1.531 0.153-1.99 0.766s-0.459 1.531 0 2.144l2.144 2.909c-2.144 1.072-3.981 1.99-4.593 2.909-0.153 0.306-0.306 0.612-0.306 1.225v8.421c-1.378 0.306-2.756 1.072-3.675 1.99l-1.072 1.225c0.306 0.306 0.919 0.766 1.378 1.225l1.072-1.072c2.297-2.45 6.431-2.297 8.268-0.459 0.306 0.459 1.072 0.766 1.684 0.766l5.053 0.153c0.306 0 0.766 0.153 0.919 0.459 0.306 0.306 0.306 0.612 0.306 0.919 0 0.766-0.612 1.225-1.378 1.225h-6.124v1.837h6.277c1.684 0 3.062-1.225 3.062-2.909 0-0.153 0-0.306 0-0.306l3.215-2.144 0.612-1.378c0.766-1.684 2.756-2.603 4.44-1.99 0 0 0.153 0 0.153 0.153 0 0 0 0.153 0 0.153l-2.603 4.134c-0.919 1.531-2.144 2.756-3.368 3.828l-3.062 2.603c-0.459 0.459-1.225 0.766-1.837 0.766h-16.689v1.837h16.383c1.072 0 2.144-0.459 3.062-1.072l3.062-2.603c1.531-1.225 2.756-2.603 3.828-4.287l2.603-4.134c0.306-0.612 0.459-1.225 0.153-1.837zM23.649 19.139l-1.072 1.837-1.99 1.378c0 0-0.153-0.153-0.153-0.153-0.612-0.612-1.378-1.072-2.297-1.072l-5.053-0.153c-0.153 0-0.306-0.153-0.459-0.306-1.225-1.225-3.062-1.837-5.053-1.837 0 0 0 0 0 0s-0.153 0-0.153 0v-8.421c0.459-0.612 1.99-1.378 3.828-2.297 0.459-0.306 0.919-0.766 1.072-1.225s0-1.072-0.306-1.531l-2.297-2.909 0.459 0.153c1.531 0.459 3.675 1.072 5.206-0.459 0 0 0.153-0.153 0.459-0.153 0.153 0 0.153 0 0.306 0.153 1.531 1.531 3.675 0.919 5.206 0.459l0.459-0.153-2.144 2.909c-0.306 0.459-0.459 0.919-0.306 1.531s0.459 0.919 1.072 1.225c1.837 0.919 3.368 1.684 3.828 2.297v7.962c-0.153 0.153-0.306 0.459-0.612 0.766z"></path>
</svg>
