<!-- Generated by IcoMoon.io -->
<svg version="1.1" xmlns="http://www.w3.org/2000/svg" width="32" height="32" viewBox="0 0 32 32">
<title>connexion</title>
<path d="M15.88 18.045c-1.444 0-2.647 1.203-2.647 2.647 0 0.481 0.241 1.203 0.722 1.684v1.444c0 1.203 0.962 2.165 2.165 2.165s2.165-0.962 2.165-2.165v-1.444c0.241-0.481 0.481-1.203 0.481-1.684 0-1.444-1.203-2.647-2.887-2.647zM15.399 21.414c-0.241-0.241-0.481-0.481-0.481-0.722 0-0.481 0.481-0.962 0.962-0.962s0.962 0.481 0.962 0.962c0 0.241-0.241 0.481-0.241 0.722-0.241 0.241-0.241 0.481-0.241 0.722v1.684c0 0.241-0.241 0.481-0.481 0.481s-0.241-0.241-0.241-0.481v-1.684c0-0.241-0.241-0.481-0.241-0.722z"></path>
<path d="M8.421 15.639h20.211v9.383h3.368v-12.752h-21.654v-2.887c0-3.128 2.647-5.534 5.774-5.534 2.887 0 5.293 2.406 5.534 5.293h3.368c-0.241-5.053-4.331-8.902-9.143-8.902s-8.902 4.090-8.902 9.143v2.887h-6.977v3.368h8.421z"></path>
<path d="M28.632 28.391v0h-25.263v-9.383h-3.368v12.752h32v-3.368z"></path>
</svg>
