<!-- Generated by IcoMoon.io -->
<svg version="1.1" xmlns="http://www.w3.org/2000/svg" width="32" height="32" viewBox="0 0 32 32">
<title>consignation-judiciaire-et-vous</title>
<path d="M14.583 19.791l3.791-2.37 1.54 2.488-1.185 0.829 2.37 3.791 0.592-0.355 9.479-6.043-0.355-0.592-1.896-2.962-1.303 0.711-5.806-9.123 1.185-0.829-2.37-3.555-9.36 6.043-0.592 0.355 2.251 3.555 1.303-0.711 0.237 0.355 1.54 2.37-3.791 2.37-0.355-0.592-10.664 6.754c-1.185 0.592-1.54 2.014-0.829 3.081l0.829 1.185c0.711 1.066 2.014 1.422 3.081 0.711l10.664-6.754-0.355-0.711zM15.649 10.55l-0.118-0.237 3.555-2.251c0 0 0 0 0 0l-0.711-1.303c0 0 0 0 0 0l-4.265 2.725-0.592 0.355-0.829-1.303 7.583-4.858 0.829 1.185-1.303 0.829 7.228 11.256 1.185-0.711 0.829 1.303-7.583 4.858-0.711-1.185 4.384-2.844c0 0 0 0 0.119-0.119l-0.829-1.185c0 0 0 0-0.119 0l-3.199 2.014-1.777-2.844-0.119-0.237-1.54-2.37-0.119-0.237-1.896-2.844zM3.445 25.953c-0.355 0.237-0.829 0.119-1.066-0.237l-0.829-1.303c-0.237-0.355-0.119-0.829 0.237-1.066l9.479-6.043 1.659 2.488-9.479 6.161zM12.924 17.303l3.791-2.37 0.829 1.303-3.791 2.37-0.829-1.303z"></path>
<path d="M17.308 28.796l0.355-1.54h11.256v-1.422h-12.441l-0.711 2.962h-1.659v1.422h17.891v-1.422z"></path>
</svg>
