<!-- Generated by IcoMoon.io -->
<svg version="1.1" xmlns="http://www.w3.org/2000/svg" width="32" height="32" viewBox="0 0 32 32">
<title>consigner-votre-loyer-et-vos-charges</title>
<path d="M16.126 1.764l-9.827 5.417v-4.535h1.89v1.638l1.764-1.008v-2.394h-5.291v7.307l-4.661 2.52 0.882 1.386 15.244-8.315 14.992 8.441 0.882-1.512z"></path>
<path d="M5.543 18.268h1.638v3.276h-1.638v-3.276z"></path>
<path d="M24.063 9.827h-16c-1.386 0-2.52 1.134-2.52 2.52v2.52h1.638v-2.52c0-0.504 0.378-0.882 0.882-0.882h16c0.504 0 0.882 0.378 0.882 0.882v14.74c0 0.504-0.378 0.882-0.882 0.882h-16c-0.504 0-0.882-0.378-0.882-0.882v-1.89h-1.638v1.89c0 1.386 1.134 2.52 2.52 2.52h0.252v1.512h1.638v-1.512h12.22v1.512h1.638v-1.512h0.126c1.386 0 2.52-1.134 2.52-2.52v-14.74c0.126-1.386-1.008-2.52-2.394-2.52z"></path>
<path d="M8.819 24.945c0 0.882 0.756 1.638 1.638 1.638h11.339c0.882 0 1.638-0.756 1.638-1.638v-10.457c0-0.882-0.756-1.638-1.638-1.638h-11.339c-0.882 0-1.638 0.756-1.638 1.638v1.26h-4.283c-0.504 0-0.756 0.378-0.756 0.756s0.378 0.756 0.756 0.756h4.283v5.039h-4.283c-0.504 0-0.756 0.378-0.756 0.756s0.378 0.756 0.756 0.756h4.283v1.134zM21.669 14.488v10.457h-11.213v-10.457h11.213z"></path>
<path d="M14.236 21.039l-0.882 0.882 0.63 0.63 0.882-0.882c0.252 0.126 0.504 0.252 0.756 0.252v1.26h0.882v-1.26c0.252 0 0.504-0.126 0.756-0.252l0.882 0.882 0.63-0.63-0.882-0.882c0.126-0.252 0.252-0.504 0.378-0.756h1.134v-0.882h-1.134c0-0.252-0.126-0.504-0.378-0.756l0.756-0.756-0.504-0.63-0.756 0.756c-0.252-0.126-0.504-0.252-0.756-0.378v-1.134h-0.882v1.134c-0.252 0.126-0.504 0.126-0.756 0.378l-1.008-0.756-0.63 0.63 0.882 0.882c-0.126 0.252-0.252 0.504-0.252 0.756h-1.26v0.882h1.26c0 0.252 0.126 0.504 0.252 0.63zM16.126 18.52c0.756 0 1.26 0.63 1.26 1.26s-0.63 1.26-1.26 1.26-1.26-0.63-1.26-1.26 0.504-1.26 1.26-1.26z"></path>
</svg>
