<!-- Generated by IcoMoon.io -->
<svg version="1.1" xmlns="http://www.w3.org/2000/svg" width="32" height="32" viewBox="0 0 32 32">
<title>conseiller-la-consignation-en-cas-de-litige</title>
<path d="M1.838 14h1.405v3.027h-1.405v-3.027z"></path>
<path d="M21.514 21.676v0.973c0 0.541-0.432 1.081-1.081 1.081h-16.216c-0.541 0-1.081-0.432-1.081-1.081v-1.838h-1.297v1.838c0 1.297 1.081 2.486 2.486 2.486h0.432v1.514h1.405v-1.514h12.649v1.514h1.405v-1.514h0.324c1.297 0 2.378-1.081 2.486-2.378-0.108-0.108-0.541-0.324-0.757-0.541-0.324-0.108-0.541-0.324-0.757-0.541z"></path>
<path d="M3.135 7.838c0-0.541 0.432-1.081 1.081-1.081h16.216c0.541 0 1.081 0.432 1.081 1.081v3.892c0.216-0.324 0.432-0.432 0.649-0.649 0.432-0.324 0.541-0.432 0.757-0.432v-2.811c0-1.297-1.081-2.486-2.486-2.486h-16.216c-1.297 0-2.378 1.081-2.378 2.486v2.486h1.405v-2.486z"></path>
<path d="M5.081 20.811c0 0.649 0.541 1.297 1.297 1.297h11.892c0.649 0 1.297-0.541 1.297-1.297v-11.135c0-0.649-0.541-1.297-1.297-1.297h-11.892c-0.649 0.108-1.297 0.649-1.297 1.297v1.622h-4.432c-0.324 0.108-0.649 0.432-0.649 0.757 0 0.432 0.324 0.649 0.649 0.649h4.432v5.297h-4.432c-0.432 0-0.649 0.324-0.649 0.649s0.324 0.649 0.649 0.649h4.432v1.514zM6.486 9.892h11.676v10.811h-11.676v-10.811z"></path>
<path d="M14.378 14.108l0.865-0.865-0.649-0.649-0.865 0.865c-0.216-0.108-0.541-0.324-0.757-0.324v-1.189h-0.973v1.189c-0.324 0.108-0.541 0.216-0.757 0.324l-0.865-0.865-0.649 0.649 0.865 0.865c-0.108 0.216-0.216 0.541-0.324 0.757h-1.189v0.973h1.297c0.108 0.216 0.216 0.541 0.324 0.757l-0.973 0.865 0.649 0.649 0.865-0.865c0.216 0.108 0.432 0.216 0.757 0.324v1.297h0.973v-1.297c0.324 0 0.541-0.108 0.757-0.324l0.865 0.865 0.649-0.649-0.865-0.865c0.108-0.216 0.324-0.541 0.324-0.757h1.189v-0.973h-1.189c0-0.324-0.108-0.541-0.324-0.757zM12.541 16.595c-0.757 0-1.297-0.649-1.297-1.297 0-0.757 0.649-1.297 1.297-1.297 0.757 0 1.297 0.649 1.297 1.297 0 0.757-0.649 1.297-1.297 1.297z"></path>
<path d="M28.541 15.297h-1.081c0.108-0.541 0.216-1.081-0.108-1.405-0.108-0.216-0.432-0.324-0.757-0.324 0 0 0 0 0 0-0.216 0-0.541 0.108-0.649 0.324l-0.757 1.297c-0.108 0.108-0.108 0.216-0.216 0.324h-1.622v3.459h1.946c0.108 0.108 0.216 0.108 0.432 0.108h2.162c0.432 0 0.865-0.432 0.865-0.865 0 0 0-0.108 0-0.108 0.108-0.108 0.216-0.324 0.216-0.541 0-0.108 0-0.108 0-0.216 0.108-0.108 0.108-0.216 0.108-0.324s0-0.216 0-0.216c0 0 0-0.108 0-0.108 0.108-0.108 0.216-0.324 0.216-0.541 0.108-0.541-0.324-0.865-0.757-0.865zM24.973 18.216h-0.865v-2.162h0.865v2.162zM28.432 16.486h-0.324c0.108 0 0.541 0 0.541 0.324s-0.324 0.324-0.541 0.324v0c0 0 0 0 0 0h0.216c0.108 0 0.108 0.108 0.108 0.108s0.108 0.108 0.108 0.216c0 0.216-0.108 0.324-0.324 0.324h-0.216c0 0 0.108 0 0.108 0 0.108 0 0.216 0 0.216 0.108 0 0 0 0.108 0 0.108 0 0.216-0.108 0.324-0.324 0.324h-2.054c-0.216 0-0.324-0.108-0.324-0.324 0 0 0-2.162 0-2.162 0-0.108 0-0.216 0.108-0.324l0.757-1.297c0-0.108 0.108-0.108 0.216-0.108 0 0 0.108 0 0.216 0 0 0 0.108 0.108 0.108 0.108 0 0.216 0 0.324-0.108 0.541 0 0.216-0.108 0.432-0.108 0.649 0 0 0 0.108 0 0.108 0 0.108 0 0.216 0.108 0.216 0 0 0.108 0 0.108 0h1.405c0.216 0 0.324 0.108 0.324 0.324s-0.216 0.432-0.324 0.432z"></path>
<path d="M26.162 10.865c-3.243 0-5.838 2.595-5.838 5.838s2.595 5.838 5.838 5.838 5.838-2.595 5.838-5.838-2.595-5.838-5.838-5.838zM26.162 21.135c-2.486 0-4.432-1.946-4.432-4.432s1.946-4.432 4.432-4.432 4.432 1.946 4.432 4.432-1.946 4.432-4.432 4.432z"></path>
</svg>
