<!-- Generated by IcoMoon.io -->
<svg version="1.1" xmlns="http://www.w3.org/2000/svg" width="32" height="32" viewBox="0 0 32 32">
<title>contribuer-a-la-protection-environnement</title>
<path d="M15.488 18.24l-1.024-0.768c2.176-2.944 3.456-7.040 3.84-8.96l1.28 0.256c-0.128 0.384-0.64 2.816-1.792 5.504 1.792-0.64 3.2-1.92 3.712-3.712 0.512-2.048-0.256-4.352-2.048-6.016-4.096 2.688-4.48 5.504-4.48 6.656s0.512 1.92 1.024 2.176l-0.768 1.152c-0.896-0.512-1.536-1.792-1.664-3.328 0-0.64 0.128-1.92 0.896-3.456-0.512-0.384-1.28-0.896-2.56-1.408-1.792 5.632 1.408 7.68 2.944 8.576l-0.256 0.512-0.384 0.512c-1.792-0.896-5.76-3.456-3.328-10.496l0.256-0.512 0.512 0.128c1.664 0.512 2.688 1.152 3.456 1.664 0.768-1.152 2.048-2.304 3.968-3.456l0.384-0.256 0.384 0.256c2.432 2.048 3.456 4.992 2.816 7.68-0.64 2.56-2.816 4.352-5.632 4.864-0.512 0.896-1.024 1.664-1.536 2.432z"></path>
<path d="M28.288 5.056c-0.384-0.128-0.896 0-1.28 0.256-1.536 1.152-2.048 3.2-1.28 4.864l0.64 1.408v1.92c-0.128 0-0.128 0-0.256 0-0.64 0.128-1.152 0.384-1.536 0.896l-2.176 3.072c0 0-0.256 0.128-0.384 0.128-1.28 0.256-2.56 1.152-3.328 2.304 0 0 0 0 0 0-0.896 1.408-1.28 2.944-1.024 4.48l0.256 1.152c0.384-0.128 0.896-0.128 1.28-0.256l-0.256-1.152c-0.512-2.56 1.408-4.992 3.328-5.376 0.384-0.128 0.896-0.256 1.28-0.768l2.048-2.816c0.128-0.256 0.384-0.384 0.64-0.384s0.512 0 0.768 0.256c0.384 0.384 0.512 0.896 0.256 1.408l-2.688 3.84 1.152 0.768 2.688-3.84c0.64-1.024 0.512-2.432-0.512-3.2-0.128 0-0.128-0.128-0.256-0.128v-2.944l-0.64-0.896c-0.768-1.152-0.384-2.816 0.64-3.584 0 0 0.128 0 0.128 0s0.128 0 0.128 0.128l1.536 3.2c0.512 1.152 0.768 2.432 0.896 3.712l0.256 2.944c0 0.512-0.128 1.024-0.384 1.408l-7.040 10.24 1.152 0.768 7.040-10.24c0.512-0.64 0.64-1.536 0.64-2.304l-0.256-2.944c-0.128-1.28-0.512-2.688-1.024-4.096l-1.408-3.456c-0.256-0.384-0.64-0.64-1.024-0.768z"></path>
<path d="M3.84 5.056c0.384-0.128 0.896 0 1.28 0.256 1.536 1.152 2.048 3.2 1.28 4.864l-0.64 1.408v1.92c0.128 0 0.128 0 0.256 0 0.64 0.128 1.152 0.384 1.536 0.896l2.176 3.072c0 0 0.256 0.128 0.384 0.128 1.28 0.256 2.56 1.152 3.328 2.304 0 0 0 0 0 0 0.896 1.408 1.28 2.944 1.024 4.48l-0.256 1.152c-0.384-0.128-0.896-0.128-1.28-0.256l0.256-1.152c0.512-2.56-1.408-4.992-3.328-5.376-0.384-0.128-0.896-0.256-1.28-0.768l-2.176-2.816c-0.128-0.128-0.384-0.384-0.64-0.384s-0.512 0-0.768 0.256c-0.384 0.384-0.512 0.896-0.256 1.408l2.688 3.84-1.024 0.768-2.688-3.84c-0.64-1.024-0.512-2.432 0.512-3.2 0.128 0 0.128-0.128 0.256-0.128v-2.944l0.64-0.896c0.768-1.152 0.384-2.816-0.64-3.584 0 0-0.128 0-0.128 0s-0.128 0-0.128 0.128l-1.664 3.2c-0.384 1.28-0.768 2.56-0.896 3.84l-0.256 2.944c0 0.512 0.128 1.024 0.384 1.408l7.040 10.24-1.152 0.768-7.040-10.24c-0.512-0.64-0.64-1.536-0.64-2.304l0.256-2.944c0.256-1.408 0.512-2.816 1.152-4.224l1.408-3.456c0.128-0.384 0.512-0.64 1.024-0.768z"></path>
</svg>
