<!-- Generated by IcoMoon.io -->
<svg version="1.1" xmlns="http://www.w3.org/2000/svg" width="32" height="32" viewBox="0 0 32 32">
<title>contact</title>
<path d="M29.851 12.657v10.746l-7.881-7.164 7.881-7.642 2.149-2.149c-0.239-0.955-1.433-1.911-2.627-1.911h-26.746c-1.433 0-2.627 1.194-2.627 2.866v17.194c0 1.672 1.194 2.866 2.627 2.866h26.746c1.433 0 2.627-1.194 2.627-2.866v-14.328l-2.149 2.388zM27.94 7.165l-11.463 10.985c-0.239 0-0.478 0-0.716 0l-11.463-10.985h23.642zM4.298 24.836l5.493-5.015-1.671-1.433-5.731 5.015v-14.806l7.881 7.642 1.911 1.672 2.149 1.911c1.194 0.955 2.866 0.955 3.821 0l2.149-1.911 7.642 6.925h-23.642z"></path>
</svg>
