<!-- Generated by IcoMoon.io -->
<svg version="1.1" xmlns="http://www.w3.org/2000/svg" width="32" height="32" viewBox="0 0 32 32">
<title>contact1</title>
<path d="M29.744 12.718v10.667l-7.795-6.974 9.846-9.846c-0.41-1.231-1.231-2.051-2.462-2.051h-26.667c-1.436 0-2.667 1.231-2.667 2.872v17.231c0 1.641 1.231 2.872 2.667 2.872h26.667c1.436 0 2.667-1.231 2.667-2.872v-14.359l-2.256 2.462zM27.897 6.974l-11.487 11.077c-0.205 0.205-0.41 0.205-0.615 0l-11.487-11.077h23.59zM4.308 24.82l5.538-4.923-1.846-1.641-5.538 4.923v-14.564l7.795 7.59 1.846 1.641 2.051 2.051c1.026 1.026 2.667 1.026 3.692 0l2.051-2.051 7.59 6.769h-23.18z"></path>
</svg>
