<!-- Generated by IcoMoon.io -->
<svg version="1.1" xmlns="http://www.w3.org/2000/svg" width="32" height="32" viewBox="0 0 32 32">
<title>creer-votre-entreprise</title>
<path d="M7.197 16.609c2.436 0 4.54-1.993 4.54-4.54s-2.104-4.429-4.54-4.429c-2.436 0-4.54 1.993-4.54 4.54s1.993 4.429 4.54 4.429zM7.197 9.080c1.661 0 2.99 1.329 2.99 3.1s-1.329 2.99-2.99 2.99c-1.661 0-3.1-1.329-3.1-3.1s1.329-2.99 3.1-2.99z"></path>
<path d="M26.131 14.062v-2.768l-6.644 2.879-3.1-7.197v-3.211h-3.765v12.18c0 0 0.332 0 0.775 0.443 0.554 0.443 0.664 0.775 0.664 0.775v-8.747h1.218l3.322 7.972 5.979-2.436v2.879l5.869-2.768v10.076h-15.059v1.439h16.609v-14.284l-5.869 2.768zM14.173 5.204h0.886v1.772h-0.886v-1.772z"></path>
<path d="M15.391 26.796h16.609v1.439h-16.609v-1.439z"></path>
<path d="M17.495 19.045h1.439v2.99h-1.439v-2.99z"></path>
<path d="M23.363 19.045h1.439v2.99h-1.439v-2.99z"></path>
<path d="M25.91 19.045h1.439v2.99h-1.439v-2.99z"></path>
<path d="M20.374 19.045h1.439v2.99h-1.439v-2.99z"></path>
<path d="M10.298 16.83h-1.329l-0.886 0.775c-0.554 0.554-1.439 0.554-1.993 0l-0.886-0.886h-1.439c-2.104 0-3.765 1.661-3.765 3.765v4.761h1.439v-4.761c0-1.329 0.997-2.325 2.325-2.325h0.886l0.554 0.443c1.107 0.997 2.879 0.997 3.986 0l0.443-0.443h0.664c1.329 0 2.325 0.997 2.325 2.325v6.311h-12.623v1.439h14.062v-7.751c0-1.993-1.772-3.654-3.765-3.654z"></path>
</svg>
