<!-- Generated by IcoMoon.io -->
<svg version="1.1" xmlns="http://www.w3.org/2000/svg" width="32" height="32" viewBox="0 0 32 32">
<title>deposer-votre-capital-social</title>
<path d="M26.987 20.601v3.159c0 1.099-0.824 2.060-2.060 2.060h-17.854c-1.099 0-2.060-0.824-2.060-2.060v-3.159l-2.060-2.060v5.219c0 2.197 1.785 4.12 4.12 4.12h17.854c2.197 0 4.12-1.785 4.12-4.12v-5.219l-2.060 2.060z"></path>
<path d="M4.326 30.215h23.21v1.785h-23.21v-1.785z"></path>
<path d="M11.193 17.717c0 0.137 0 0.275 0 0.549s0 0.549 0 0.824h-1.511v1.373h1.785c0.412 1.099 0.961 1.923 1.923 2.609 0.824 0.687 1.923 0.961 3.021 0.961 1.648 0 3.021-0.687 3.983-1.923l-1.236-1.373c-0.412 0.549-0.961 0.824-1.373 1.099s-0.961 0.275-1.511 0.275c-1.236 0-2.060-0.549-2.747-1.648h3.845v-1.373h-4.258c0-0.275 0-0.549 0-0.824s0-0.412 0-0.549h4.258v-1.373h-3.983c0.275-0.549 0.687-1.099 1.099-1.373 0.549-0.275 1.099-0.549 1.785-0.549s1.236 0.137 1.648 0.275c0.412 0.275 0.824 0.549 1.373 1.099l1.099-1.511c-0.961-1.236-2.472-1.923-4.12-1.923-0.961 0.137-2.060 0.412-2.884 1.236-0.961 0.687-1.511 1.648-1.923 2.884h-1.648v1.373l1.373-0.137z"></path>
<path d="M15.451 10.3c0.137 0.137 0.137 0.137 0.275 0l4.12-4.12c0 0 0-0.137 0-0.137s0-0.137 0-0.137l-0.824-0.824c0 0-0.137 0-0.137 0s-0.137 0-0.137 0l-2.335 2.472v-7.416c0 0-0.137-0.137-0.137-0.137h-1.236c-0.137 0-0.137 0.137-0.137 0.137v7.416l-2.335-2.335c-0.137-0.137-0.137-0.137-0.275 0l-0.824 0.824c0 0 0 0.137 0 0.137s0 0.137 0 0.137l3.983 3.983z"></path>
</svg>
