<!-- Generated by IcoMoon.io -->
<svg version="1.1" xmlns="http://www.w3.org/2000/svg" width="32" height="32" viewBox="0 0 32 32">
<title>depot-de-remuneration-des-enfants-du-spectacle</title>
<path d="M8.649 26.502c0-0.988-0.865-1.853-1.853-1.853h-3.707c-0.988 0-1.853 0.865-1.853 1.853v0.618h-1.236v1.236h9.884v-1.236h-1.236v-0.618zM2.471 26.502c0-0.371 0.247-0.618 0.618-0.618h3.707c0.371 0 0.618 0.247 0.618 0.618v0.618h-4.942v-0.618z"></path>
<path d="M19.768 26.502c0-0.988-0.865-1.853-1.853-1.853h-3.707c-0.988 0-1.853 0.865-1.853 1.853v0.618h-1.236v1.236h9.884v-1.236h-1.236v-0.618zM13.591 26.502c0-0.371 0.247-0.618 0.618-0.618h3.707c0.371 0 0.618 0.247 0.618 0.618v0.618h-4.942v-0.618z"></path>
<path d="M30.764 26.502c0-0.988-0.865-1.853-1.853-1.853h-3.707c-0.988 0-1.853 0.865-1.853 1.853v0.618h-1.236v1.236h9.884v-1.236h-1.236v-0.618zM24.587 26.502c0-0.371 0.247-0.618 0.618-0.618h3.707c0.371 0 0.618 0.247 0.618 0.618v0.618h-4.942v-0.618z"></path>
<path d="M28.293 22.178h-4.448l2.965-7.907c0.124-0.371 0-0.865-0.494-0.988 0 0-0.124 0-0.124 0-3.089-0.494-7.537-3.089-9.514-6.301-0.247-0.371-0.618-0.494-0.988-0.247-0.124 0.124-0.247 0.124-0.247 0.247-1.977 3.212-6.425 5.807-9.514 6.301-0.494 0.124-0.741 0.494-0.618 0.865 0 0 0 0.124 0 0.124l2.965 7.907h-5.931v1.483h8.154l-0.371-0.988-3.089-8.154c3.089-0.741 6.795-2.842 9.019-5.931 2.224 2.965 5.931 5.066 9.019 5.931l-3.089 8.154-0.371 0.988h8.154v-17.050h-1.483v15.568z"></path>
<path d="M3.83 3.645h-1.483v17.050h1.483v-15.568h25.946v-1.483z"></path>
</svg>
