<!-- Generated by IcoMoon.io -->
<svg version="1.1" xmlns="http://www.w3.org/2000/svg" width="32" height="32" viewBox="0 0 32 32">
<title>drag-n-drop</title>
<path d="M2 8h3v2h-3v3h-2v-5h2zM22 32h-1v-2h1v-1h2v3h-2zM2 30h3v2h-5v-3h2v1zM0 15h2v5h-2v-5zM0 22h2v5h-2v-5zM22 24h2v3h-2v-3zM7 30h5v2h-5v-2zM7 8h1v2h-1v-2zM14 30h5v2h-5v-2z"></path>
<path d="M30 20.571v-18.571h-20v11.429l3.429-3.429 7 7 3-3 6.571 6.571zM28.571 22l-5.143-5.143-3 3-7-7-3.429 3.429v5.714h18.571zM8 0h24v24h-24v-24zM24 12c-2.143 0-4-1.857-4-4s1.857-4 4-4c2.143 0 4 1.857 4 4s-1.857 4-4 4zM24 10c1.143 0 2-0.857 2-2s-0.857-2-2-2c-1.143 0-2 0.857-2 2s0.857 2 2 2z"></path>
</svg>
