<!-- Generated by IcoMoon.io -->
<svg version="1.1" xmlns="http://www.w3.org/2000/svg" width="32" height="32" viewBox="0 0 32 32">
<title>envoyer-une-demande</title>
<path d="M25.519 10.532l-5.468-5.266c0 0-0.203 0-0.203 0s-0.203 0-0.203 0l-1.013 1.013c0 0 0 0.203 0 0.203s0 0.203 0 0.203l3.038 3.038h-7.899c-2.835 0-5.266 2.43-5.266 5.266v4.051h2.228v-4.051c0-1.62 1.215-2.835 2.835-2.835h7.899l-2.835 2.835c0 0 0 0.203 0 0.405l1.013 1.013c0 0 0.203 0 0.203 0s0.203 0 0.203 0l5.468-5.468c0 0 0-0.203 0-0.405z"></path>
<path d="M2.43 2.835h29.57v-2.43h-32v18.633h2.43z"></path>
<path d="M29.57 5.873v16.203h-16l-0.203 0.203-6.684 4.658v-4.861h-6.684v2.43h4.253v7.089l1.823-1.418 6.076-4.051 2.228-1.62h17.62v-18.633z"></path>
</svg>
