<!-- Generated by IcoMoon.io -->
<svg version="1.1" xmlns="http://www.w3.org/2000/svg" width="32" height="32" viewBox="0 0 32 32">
<title>envoyer-ami</title>
<path d="M32 11.917l-12.359-9.49v2.869l2.207 1.324 6.841 5.297-7.062 5.297v-3.090l-0.883-0.221c-4.414-0.441-8.828 1.103-11.917 4.414 0-1.766 0.883-4.414 4.193-6.621v0 0c0 0 2.207-1.545 7.283-1.545h1.324c0 0 0-1.986 0-1.986s-2.207 0-2.207 0c-4.414 0-6.841 1.324-7.503 1.766-5.738 3.752-5.297 9.269-5.076 10.372l0.662 3.090 1.986-2.428c2.207-3.31 5.959-5.076 9.931-4.855v5.738l12.579-9.931z"></path>
<path d="M2.207 25.159v-14.345h7.062v-2.207h-9.269v16.552z"></path>
<path d="M22.51 20.965v6.4h-22.51v2.207h24.497v-8.607z"></path>
</svg>
