<!-- Generated by IcoMoon.io -->
<svg version="1.1" xmlns="http://www.w3.org/2000/svg" width="32" height="32" viewBox="0 0 32 32">
<title>extrait-acte-naissance</title>
<path d="M26.535 7.243l-7.243-7.243h-15.407v2.107h12.774v9.218h9.481v18.831h-20.148v-25.942h-2.107v27.786h24.23v-23.177l-1.58-1.58zM18.634 9.086v-6.848l6.848 6.848h-6.848z"></path>
<path d="M23.111 17.514c-0.132-2.765-2.37-5.004-5.136-5.004h-0.79v5.004h-5.794c-0.132-1.58-1.185-2.765-2.37-2.765h-1.317v1.58h1.185c0.527 0 0.922 0.658 0.922 1.449v0.922c0.132 2.107 1.185 3.951 2.897 4.872-0.527 0.395-0.922 1.053-0.922 1.712 0 1.185 0.922 2.107 2.107 2.107s2.107-0.922 2.107-2.107c0-0.395-0.132-0.79-0.395-1.185h1.449c-0.263 0.395-0.395 0.79-0.395 1.185 0 1.185 0.922 2.107 2.107 2.107s2.107-0.922 2.107-2.107c0-0.658-0.263-1.317-0.79-1.712 1.844-0.922 3.029-3.029 3.029-5.267v-0.79zM14.815 25.284c0 0.395-0.263 0.658-0.658 0.658s-0.658-0.263-0.658-0.658c0-0.395 0.263-0.658 0.658-0.658 0.395-0.132 0.658 0.263 0.658 0.658zM18.765 17.514v-3.424c1.58 0.263 2.897 1.712 3.029 3.424h-3.029zM21.663 19.095c-0.263 2.107-1.844 3.556-3.687 3.556h-2.765c-1.844 0-3.424-1.58-3.687-3.556h10.14zM19.556 25.284c0 0.395-0.263 0.658-0.658 0.658s-0.658-0.263-0.658-0.658c0-0.395 0.263-0.658 0.658-0.658 0.395-0.132 0.658 0.263 0.658 0.658z"></path>
</svg>
