<!-- Generated by IcoMoon.io -->
<svg version="1.1" xmlns="http://www.w3.org/2000/svg" width="32" height="32" viewBox="0 0 32 32">
<title>faire-face-aux-difficultes-financieres</title>
<path d="M7.138 14.585c2.462 0 4.431-1.969 4.431-4.431s-1.969-4.431-4.431-4.431c-2.462 0-4.431 1.969-4.431 4.431s1.969 4.431 4.431 4.431zM7.138 7.2c1.723 0 3.077 1.354 3.077 3.077s-1.477 2.954-3.077 2.954c-1.723 0-3.077-1.354-3.077-3.077s1.354-2.954 3.077-2.954z"></path>
<path d="M32 12.492h-1.477v9.969h-15.015v1.477h16.492v-0.123z"></path>
<path d="M32 9.292h-19.323v4.308c0 0 0.369 0.123 0.738 0.369s0.615 0.615 0.615 0.615v-3.815h17.969v-1.477z"></path>
<path d="M28.308 21.354l-5.415-4.677-2.215 3.938-2.338-4.677-1.108 3.446h-1.723v-1.477h0.738l1.846-5.662 2.708 5.292 1.723-3.077 6.646 5.785z"></path>
<path d="M10.092 14.831h-1.231l-0.862 0.738c-0.492 0.615-1.354 0.615-1.846 0.123l-0.985-0.862h-1.477c-2.092 0-3.692 1.723-3.692 3.692v4.554h1.477v-4.554c0-1.231 0.985-2.338 2.338-2.338h0.862l0.492 0.492c1.108 0.985 2.831 0.985 3.938 0l0.369-0.369h0.615c1.231 0 2.338 0.985 2.338 2.338v6.154h-12.431v1.477h13.908v-7.631c0-2.215-1.723-3.815-3.815-3.815z"></path>
</svg>
