<!-- Generated by IcoMoon.io -->
<svg version="1.1" xmlns="http://www.w3.org/2000/svg" width="32" height="32" viewBox="0 0 32 32">
<title>garantir-vos-projets-amenagements</title>
<path d="M8.889 8.479h2.872v2.872h-2.872v-2.872z"></path>
<path d="M8.889 14.085h2.872v2.872h-2.872v-2.872z"></path>
<path d="M8.889 19.966h2.872v2.872h-2.872v-2.872z"></path>
<path d="M14.632 8.479h2.872v2.872h-2.872v-2.872z"></path>
<path d="M14.632 14.222h2.872v2.872h-2.872v-2.872z"></path>
<path d="M14.632 19.966h2.872v2.872h-2.872v-2.872z"></path>
<path d="M20.513 11.761c0.547-0.41 1.231-0.821 1.915-1.094v-7.932h-18.598v1.778h16.684v7.248z"></path>
<path d="M22.427 25.846c-0.684-0.273-1.368-0.684-1.915-1.094v3.009h-14.906v-20.103h-1.778v19.966h-3.829v1.641h25.983v-1.641h-3.556v-1.778z"></path>
<path d="M25.573 11.897c-3.556 0-6.427 2.872-6.427 6.427s2.872 6.427 6.427 6.427c3.556 0 6.427-2.872 6.427-6.427s-2.872-6.427-6.427-6.427zM25.573 22.974c-2.598 0-4.786-2.188-4.786-4.786s2.188-4.786 4.786-4.786c2.598 0 4.786 2.188 4.786 4.786s-2.188 4.786-4.786 4.786z"></path>
<path d="M24.752 19.009l-1.231-1.368-0.821 0.821 1.915 2.325 3.692-3.692-0.684-0.957z"></path>
</svg>
