<!-- Generated by IcoMoon.io -->
<svg version="1.1" xmlns="http://www.w3.org/2000/svg" width="32" height="32" viewBox="0 0 32 32">
<title>glossaire</title>
<path d="M21.333 0h-18.773v32h26.88v-23.893l-8.107-8.107zM26.24 11.947v16.853h-20.48v-25.6h11.947v8.747h8.533zM20.48 9.173v-5.973l5.973 5.973h-5.973z"></path>
<path d="M12.587 24.107h-1.28v-0.64c-0.427 0.427-0.64 0.64-1.28 0.64-0.427 0-0.853-0.213-1.28-0.427s-0.427-0.64-0.427-1.067c0-0.427 0.213-0.853 0.427-1.067 0.64-0.213 1.067-0.213 1.707-0.213h0.853c0-0.427-0.213-0.64-0.853-0.64-0.213 0-0.427 0-0.64 0.213-0.213 0-0.427 0.213-0.64 0.427l-0.427-1.28c0.64-0.427 1.28-0.64 2.133-0.64 0.64 0 1.067 0.213 1.28 0.427 0.213 0.427 0.427 0.853 0.427 1.493v2.773zM11.307 22.4v-0.213h-0.853c-0.427 0-0.853 0.213-0.853 0.427s0 0.213 0.213 0.427c0.213 0 0.213 0.213 0.427 0.213s0.427 0 0.64-0.213 0.427-0.427 0.427-0.64z"></path>
<path d="M16.427 19.413c0.64 0 1.067 0.213 1.493 0.64s0.64 1.067 0.64 1.707-0.213 1.28-0.64 1.707c-0.427 0.427-0.853 0.64-1.493 0.64s-1.067-0.213-1.28-0.64v0.64h-1.28v-6.4h1.28v2.347c0.213-0.427 0.64-0.64 1.28-0.64zM14.933 21.973c0 0.427 0 0.64 0.213 0.853s0.427 0.427 0.853 0.427 0.64-0.213 0.853-0.427c0.213-0.213 0.427-0.64 0.427-0.853 0-0.427-0.213-0.64-0.427-0.853-0.213-0.427-0.427-0.64-0.853-0.64-0.213 0-0.427 0.213-0.64 0.427s-0.427 0.64-0.427 1.067z"></path>
<path d="M21.547 23.040c0.427 0 0.853-0.213 1.067-0.64l0.853 0.853c-0.64 0.64-1.28 0.853-1.92 0.853s-1.28-0.213-1.707-0.64c-0.427-0.427-0.64-1.067-0.64-1.707s0.213-1.28 0.64-1.707 1.067-0.64 1.707-0.64c0.427 0 0.64 0 1.067 0.213s0.64 0.427 0.853 0.64l-0.64 0.853c-0.213-0.213-0.427-0.213-0.64-0.427-0.213 0-0.427 0-0.64 0-0.427 0-0.64 0.213-0.853 0.427s-0.427 0.427-0.427 0.853c0 0.427 0.213 0.64 0.427 0.853 0.427 0.213 0.64 0.213 0.853 0.213z"></path>
</svg>
