<!-- Generated by IcoMoon.io -->
<svg version="1.1" xmlns="http://www.w3.org/2000/svg" width="32" height="32" viewBox="0 0 32 32">
<title>historique</title>
<path d="M14 7.143v9.714l6 6 2.857-2.857-4.857-4.857v-8z"></path>
<path d="M16 0c0 0 0 0 0 0-5.143 0-9.714 2.286-12.857 6.286v-2.857h-3.143v9.429h9.429v-3.143h-4.286c1.714-2.857 4.286-4.857 7.429-5.714 3.143-1.143 6.571-0.857 9.429 0.857 3.143 1.714 5.143 4.286 6.286 7.429 0.857 3.143 0.571 6.857-0.857 9.714-1.714 3.143-4.286 5.429-7.714 6.286-3.143 0.857-6.857 0.571-9.714-0.857-4.286-2.286-6.857-6.571-6.857-11.429v-0.286h-3.143v0.286c0 8.857 7.143 16 16 16s16-7.143 16-16-7.143-16-16-16z"></path>
</svg>
