<!-- Generated by IcoMoon.io -->
<svg version="1.1" xmlns="http://www.w3.org/2000/svg" width="32" height="32" viewBox="0 0 32 32">
<title>imprimer</title>
<path d="M28.527 23.194h-3.473v-2.233h0.744c0.744 0 1.24-0.496 1.24-1.24s-0.496-1.24-1.24-1.24h-19.597c-0.744 0.248-1.24 0.744-1.24 1.24s0.496 1.24 1.24 1.24h1.24v2.233h-3.969c-0.744 0-0.992-0.496-0.992-0.992v-9.178h-2.481v9.178c0 1.736 1.488 3.225 3.473 3.225h3.969v3.721c0 0.744 0.496 1.24 1.24 1.24h15.38c0.744 0 1.24-0.496 1.24-1.24v-3.721h3.473c1.488 0 2.729-0.992 3.225-2.481h-3.473zM22.822 28.155h-13.147v-7.194h12.899v7.194z"></path>
<path d="M6.202 10.543h22.326c0.496 0 0.992 0.496 0.992 0.992v9.178h2.481v-9.178c0-1.736-1.488-3.225-3.225-3.473v-5.209c0-0.744-0.496-1.24-1.24-1.24h-23.318c-0.496 0-0.992 0.496-0.992 1.24v5.457c-1.488 0-2.481 0.992-2.977 2.481h5.953zM5.457 4.093h21.085v4.217h-21.085v-4.217z"></path>
</svg>
