<!-- Generated by IcoMoon.io -->
<svg version="1.1" xmlns="http://www.w3.org/2000/svg" width="32" height="32" viewBox="0 0 32 32">
<title>information_outline</title>
<path d="M15.638 26.663c0.355 0 1.066 0 1.066-0.355 0.355-0.355 0.711-0.711 0.711-1.422 0-0.355 0-1.066-0.355-1.066-0.355-0.355-1.066-0.711-1.422-0.711v-0.355c0 0 0 0 0 0v0.355c-1.422 0-1.777 0.711-1.777 2.133 0 0.711 0.711 1.422 1.777 1.422z"></path>
<path d="M18.837 6.048c-0.711 0-1.422-0.355-2.133-0.355-1.422 0-2.488 0.355-3.554 1.066-1.422 0.355-2.488 1.422-2.843 2.488-0.355 0.355-0.355 0.711 0 1.066 0 0.355 0.355 0.355 1.066 0.711 0 0 0 0 0.355 0s0.711-0.355 1.066-0.711c0.711-1.422 2.133-1.777 3.91-1.777 0 0 0.355 0 0.355 0 0.711 0 1.422 0.355 1.777 0.711s0.711 1.066 0.711 1.777c0 0.711-0.355 1.066-0.711 1.422-0.711 0.711-1.422 1.422-2.133 1.777-1.422 1.422-2.488 2.843-2.488 4.976 0 0.355 0 0.355 0.355 0.711s0.711 0.711 1.066 0.711c0 0 0.355 0 0.355 0 0.711 0 1.066-0.711 1.066-1.066 0-1.777 0.711-3.199 1.777-3.91 0 0 0.355-0.355 0.711-0.355v0l1.066-1.066c1.066-0.711 1.777-2.133 1.777-3.554-0.355-2.488-1.777-3.91-3.554-4.62z"></path>
<path d="M15.994 0.006c-8.886 0-15.994 7.108-15.994 15.994s7.108 15.994 15.994 15.994c8.886 0 15.994-7.108 15.994-15.994 0.355-8.886-7.108-15.994-15.994-15.994zM15.994 29.861c-7.464 0-13.506-6.042-13.506-13.506s6.042-13.506 13.506-13.506c7.464 0 13.506 6.042 13.506 13.506 0.355 7.464-5.687 13.506-13.506 13.506z"></path>
</svg>
