<!-- Generated by IcoMoon.io -->
<svg version="1.1" xmlns="http://www.w3.org/2000/svg" width="32" height="32" viewBox="0 0 32 32">
<title>information</title>
<path d="M16 0c-8.762 0-16 7.238-16 16s7.238 16 16 16c8.762 0 16-7.238 16-16s-7.238-16-16-16zM17.905 25.143c0 1.524-0.762 2.286-2.286 2.286-1.524 0.381-2.667-0.762-2.667-1.905 0-1.524 0.762-2.667 2.286-2.667s2.667 0.762 2.667 2.286zM20.952 14.476c-0.762 0.381-1.143 1.143-1.905 1.524-1.143 0.762-1.524 1.905-1.524 3.048 0 0.762-0.381 1.524-1.524 1.905-0.762 0.381-1.905 0-2.286-0.762 0-0.381-0.381-0.762-0.381-1.143 0-2.286 0.762-4.19 2.667-5.333 0.762-0.762 1.524-1.143 2.286-1.905 0.381-0.381 0.381-0.762 0.381-1.524 0-1.143-0.762-2.286-2.286-2.286s-3.048 0.381-4.19 1.905c0 0.762-0.762 1.143-1.524 1.143-1.524-0.381-1.905-1.524-1.524-2.667 0.762-1.143 1.524-2.286 3.048-3.048 1.143-0.762 2.667-1.143 4.19-1.143 0.762 0 1.524 0.381 2.667 0.381 2.286 0.762 3.81 2.667 3.81 5.333 0.381 1.905-0.381 3.429-1.905 4.571v0z"></path>
</svg>
