<!-- Generated by IcoMoon.io -->
<svg version="1.1" xmlns="http://www.w3.org/2000/svg" width="32" height="32" viewBox="0 0 32 32">
<title>inscription</title>
<path d="M20.935 28.73h3.27v3.27h-3.27v-3.27z"></path>
<path d="M26.541 28.73h3.27v3.27h-3.27v-3.27z"></path>
<path d="M25.373 0l-22.657 22.89-2.569 7.007c-0.234 0.934 0.234 1.869 0.934 2.102 0.234 0 0.234 0 0.467 0h16.584v-3.27h-7.942l17.518-17.518-2.336-2.336-2.803 2.803-2.102-1.869 4.905-5.139 4.204 4.204 2.336-2.336-6.54-6.54zM6.22 23.825l11.679-11.679 2.336 1.869-11.679 11.679-2.336-1.869zM6.22 27.796l-2.803 0.934 0.934-2.803 1.869 1.869z"></path>
</svg>
