<!-- Generated by IcoMoon.io -->
<svg version="1.1" xmlns="http://www.w3.org/2000/svg" width="32" height="32" viewBox="0 0 32 32">
<title>linkedin</title>
<path d="M7.111 30.963h-6.222v-20.444h6.222v20.444zM3.852 8.148v0c-2.37 0-3.852-1.481-3.852-3.556s1.481-3.556 3.852-3.556c2.37 0 3.852 1.481 3.852 3.556 0 1.778-1.481 3.556-3.852 3.556zM32 30.963h-7.111v-10.667c0-2.667-1.185-4.444-3.556-4.444-1.778 0-2.963 1.185-3.259 2.37-0.296 0.593-0.296 1.185-0.296 1.778v10.963h-6.815c0 0 0-18.667 0-20.148h6.815v3.259c0.296-1.481 2.667-3.259 6.222-3.259 4.444 0 8 2.963 8 9.185v10.963z"></path>
</svg>
