<!-- Generated by IcoMoon.io -->
<svg version="1.1" xmlns="http://www.w3.org/2000/svg" width="32" height="32" viewBox="0 0 32 32">
<title>modifier</title>
<path d="M29.838 8.108l2.162-1.946-5.838-5.838c0 0-16.216 16.216-16.432 16.432s-2.162 5.838-2.162 5.838c-0.216 0.432 0 0.865 0 1.081 0.432 0.432 0.649 0.649 1.081 0.865 0.216 0 0.216 0 0.432 0v0l5.405-1.73 0.649-0.216c0 0 0.216 0 0.216-0.216l12.757-12.757-3.676-3.676 1.514-1.514 1.081 1.081 2.811 2.595zM11.027 21.081l1.514-2.811 1.081 1.081-2.595 1.73zM16.216 17.622l-1.73-1.73 8-8 1.514 1.514-7.784 8.216z"></path>
<path d="M22.27 19.784v8.216h-18.811v-18.811h9.514c1.081-1.081 2.378-2.378 3.459-3.459h-16.432v25.946h25.946v-15.568l-3.676 3.676z"></path>
</svg>
