<!-- Generated by IcoMoon.io -->
<svg version="1.1" xmlns="http://www.w3.org/2000/svg" width="32" height="32" viewBox="0 0 32 32">
<title>mon-espace</title>
<path d="M16 15.273c4.121 0 7.515-3.394 7.515-7.515s-3.394-7.273-7.515-7.273-7.515 3.394-7.515 7.515 3.394 7.273 7.515 7.273zM11.879 8c0-2.182 1.939-4.121 4.121-4.121s4.121 1.939 4.121 4.121-1.939 3.879-4.121 3.879c-2.182 0-4.121-1.697-4.121-3.879z"></path>
<path d="M24.727 18.667h-17.455c-3.879 0-7.273 3.151-7.273 7.273v5.091l0.485 0.485h24.727v-3.394h-21.818v-2.182c0-2.182 1.697-3.879 3.879-3.879h17.697c2.182 0 3.879 1.697 3.879 3.879v5.576h2.667l0.485-0.485v-5.091c0-4.121-3.151-7.273-7.273-7.273z"></path>
</svg>
