<!-- Generated by IcoMoon.io -->
<svg version="1.1" xmlns="http://www.w3.org/2000/svg" width="32" height="32" viewBox="0 0 32 32">
<title>newsletter</title>
<path d="M24.75 22.125v0l-4-1.75c0 0 0 0 0 0l-3.25-1.5 10.75-11.5-3.25 12.5 2.5 1.25 4.5-17.75c0 0 0 0 0 0 0-0.25 0-0.25 0-0.5 0 0 0 0 0 0 0-0.25 0-0.25-0.25-0.5 0 0 0 0 0 0s0 0 0 0 0 0 0 0c-0.25 0-0.25-0.25-0.5-0.25 0 0 0 0 0 0-0.25 0-0.5 0-0.5 0s0 0 0 0l-30 9.75c-0.5 0-0.75 0.5-0.75 1.25 0 0.5 0.25 1 0.75 1.25l7.5 2.5 2.25 12.25c0 0.5 0.25 0.75 0.75 0.75 0 0 0 0 0.25 0 0 0 0.25 0 0.25 0s0 0 0 0 0 0 0.25 0 0.25 0 0.5-0.25c0 0 0 0 0.25 0 0 0 0 0 0.25 0l7.5-6.75 4.5 2.25c0.25 0.25 0.75 0.25 1 0s0.5-0.5 0.75-0.75l0.25-1-2.25-1.25zM9.25 14.375l-4-1.25 15-5-11 6.25zM14.75 18.375c-0.25 0.25-0.25 0.25-0.5 0.5l-2 5.5-1.5-8 13-7.75-9 9.75c0 0 0 0 0 0zM15 24.375l1.25-3.5 1.5 1-2.75 2.5z"></path>
</svg>
