<!-- Generated by IcoMoon.io -->
<svg version="1.1" xmlns="http://www.w3.org/2000/svg" width="32" height="32" viewBox="0 0 32 32">
<title>pdf</title>
<path d="M29.013 5.12c-1.564-1.564-3.129-3.129-4.551-4.551-0.427-0.427-0.711-0.569-1.28-0.569-6.684 0-13.227 0-19.911 0-0.142 0-0.427 0-0.711 0 0 10.667 0 21.333 0 32 8.96 0 17.92 0 26.88 0 0-0.142 0-0.142 0-0.284 0-8.676 0-17.209 0-25.884 0-0.142-0.142-0.569-0.427-0.711zM24.32 1.849c0.996 0.996 2.133 2.133 3.271 3.271-0.996 0-2.133 0-3.271 0 0-0.996 0-2.133 0-3.271zM28.444 31.004c-8.249 0-16.498 0-24.889 0 0-9.956 0-20.053 0-30.009 6.542 0 13.084 0 19.627 0 0 1.707 0 3.413 0 5.12 1.707 0 3.413 0 5.12 0 0.142 8.391 0.142 16.64 0.142 24.889z"></path>
<path d="M20.764 17.209c-1.707 0.427-2.844-0.142-3.84-1.28-0.142-0.142-0.284-0.284-0.284-0.284-1.138-0.853-1.991-1.849-1.422-3.129 0-1.991-0.142-3.129-0.711-3.982-0.569-0.711-1.28-0.996-2.133-0.711-0.711 0.284-1.28 0.853-1.138 1.707 0 0.427 0.142 0.853 0.284 1.28 0.711 1.138 1.422 2.133 1.991 3.129 0.284 0.284 0.427 0.569 0.427 0.853-0.142 1.138-0.427 2.276-0.711 3.556-0.142 0.711-0.427 1.422-1.28 1.707-0.427 0.142-0.853 0.427-1.28 0.711-0.711 0.569-1.422 1.28-1.991 1.991s-0.284 1.707 0.427 2.276c0.711 0.569 1.422 0.569 2.133-0.142 0.284-0.284 0.711-0.711 0.853-1.138 0.427-0.996 0.996-1.991 1.28-2.844 0.427-0.569 0.569-0.853 0.996-0.996 1.138-0.427 2.276-0.853 3.556-1.28 0.427-0.142 0.711-0.142 1.138 0.142 1.138 0.853 2.276 1.564 3.698 1.707 0.996 0.142 1.707-0.284 1.991-1.138 0.284-0.996 0-1.849-0.996-2.133-0.996-0.142-2.133-0.284-2.987 0zM10.809 23.893c-0.284 0.284-0.569 0.711-0.996 0.284s-0.427-0.853 0-1.28c0.711-0.853 1.564-1.422 2.56-1.991 0 0 0.142 0.142 0.142 0.142-0.569 0.996-0.996 1.991-1.707 2.844zM13.938 12.942c-0.569-0.996-1.138-1.991-1.707-2.987-0.142-0.427-0.142-0.996 0.427-1.138 0.569-0.284 0.996 0.142 1.138 0.569 0.142 1.138 0.284 2.276 0.427 3.413 0 0-0.142 0.142-0.284 0.142zM14.222 18.916c0.284-1.138 0.427-2.276 0.711-3.413 0.853 0.853 1.707 1.564 2.56 2.276-1.138 0.427-2.276 0.711-3.271 1.138zM23.182 18.204c0.427 0 0.711 0.284 0.569 0.853s-0.569 0.711-0.996 0.569c-0.996-0.284-1.849-0.711-2.844-1.138 0-0.142 0-0.142 0.142-0.284 0.996 0 1.991 0 3.129 0z"></path>
</svg>
