<!-- Generated by IcoMoon.io -->
<svg version="1.1" xmlns="http://www.w3.org/2000/svg" width="32" height="32" viewBox="0 0 32 32">
<title>piece-identite</title>
<path d="M30.161 7.418v17.287h-28.199v-17.287h28.199zM32 5.456h-32v21.088h32v-21.088z"></path>
<path d="M9.563 16c1.594 0 2.82-1.226 2.82-2.82s-1.226-2.82-2.82-2.82-2.82 1.226-2.82 2.82 1.349 2.82 2.82 2.82zM8.582 13.18c0-0.49 0.49-0.981 0.981-0.981s0.981 0.49 0.981 0.981-0.368 0.981-0.981 0.981c-0.49 0-0.981-0.49-0.981-0.981z"></path>
<path d="M12.138 16.613h-5.027c-1.471 0-2.82 1.226-2.82 2.82v2.207h6.866v-1.839h-4.904v-0.368c0-0.49 0.368-0.858 0.858-0.858h5.027c0.49 0 0.858 0.368 0.858 0.858v2.207h1.839v-2.207c0-1.594-1.226-2.82-2.697-2.82z"></path>
<path d="M27.464 19.433h-10.544v1.962h10.544v-1.962z"></path>
<path d="M27.464 15.632h-10.544v1.962h10.544v-1.962z"></path>
<path d="M27.464 11.954h-10.544v1.962h10.544v-1.962z"></path>
</svg>
