<!-- Generated by IcoMoon.io -->
<svg version="1.1" xmlns="http://www.w3.org/2000/svg" width="32" height="32" viewBox="0 0 32 32">
<title>preserver-vos-interets-par-une-garantie-financiere</title>
<path d="M14.943 28.528c-0.302 0.755-0.906 1.509-1.811 1.509-1.057 0-1.962-0.906-1.962-1.962h-2.113c0 2.113 1.811 3.925 3.925 3.925 1.358 0 2.566-0.604 3.17-1.66-0.453-0.604-0.906-1.208-1.208-1.811z"></path>
<path d="M30.189 16.151c0-9.057-5.736-14.642-13.283-15.094v-1.057h-1.66v1.208c-7.396 0.453-13.434 6.189-13.434 15.245 0.604-0.151 1.208-0.302 1.208-0.302l1.66-0.302c1.66-0.302 3.472-0.302 5.132 0l1.66 0.302c0.151 0 0.302 0 0.453 0l1.66-0.302c0.453-0.151 0.906-0.151 1.509-0.151v4.377c0.453-0.755 1.208-1.509 1.962-2.113v-2.264c0.604 0 1.208 0.151 1.66 0.302l1.66 0.302c0.151 0 0.302 0 0.453 0l1.66-0.302c1.509-0.302 3.019-0.302 4.377-0.151v0c0-0.604 0-1.208-0.151-1.811-0.604 0-1.208-0.151-1.66-0.151-1.057 0-1.962 0.151-3.019 0.302h-0.604c0-3.925-1.057-7.698-3.17-11.019 5.283 0.906 9.208 5.132 9.962 10.264 0 0 0.151 1.509 0.151 2.415l1.811 0.302zM10.717 14.189l-0.453-0.151c-0.906-0.151-1.962-0.302-3.019-0.302s-1.962 0.151-3.019 0.302l-0.453 0.151c0.453-5.585 4.679-10.113 10.113-11.17-2.113 3.321-3.17 7.245-3.17 11.17zM19.774 14.189l-0.604-0.151c-1.962-0.453-4.075-0.453-6.038 0l-0.604 0.151c-0.151-3.623 0.906-7.245 2.868-10.264l0.755-1.057 0.755 1.057c1.962 3.019 2.868 6.642 2.868 10.264z"></path>
<path d="M21.887 17.66c-3.623 0-6.642 3.019-6.642 6.642s3.019 6.642 6.642 6.642c3.623 0 6.642-3.019 6.642-6.642s-3.019-6.642-6.642-6.642zM21.887 29.132c-2.717 0-4.83-2.264-4.83-4.83 0-2.717 2.264-4.83 4.83-4.83 2.717 0 4.83 2.264 4.83 4.83 0 2.717-2.113 4.83-4.83 4.83z"></path>
<path d="M21.434 22.491c0.302-0.151 0.604-0.302 0.906-0.302s0.604 0 0.906 0.151c0.302 0.151 0.453 0.302 0.755 0.604l0.604-0.755c-0.604-0.604-1.358-1.057-2.264-1.057-0.604 0-1.208 0.151-1.66 0.604s-0.906 0.906-1.057 1.509h-0.906v0.755h0.755c0 0 0 0.151 0 0.302s0 0.302 0 0.453h-0.755v0.755h0.906c0.151 0.604 0.604 1.057 1.057 1.358s1.057 0.453 1.66 0.453c0.906 0 1.66-0.302 2.113-1.057l-0.604-0.604c-0.302 0.302-0.453 0.453-0.755 0.604-0.151 0.151-0.453 0.151-0.755 0.151-0.604 0-1.057-0.302-1.509-0.906h2.113v-0.755h-2.264c0-0.151 0-0.302 0-0.453s0-0.302 0-0.302h2.264v-0.755h-2.113c0.151-0.302 0.302-0.604 0.604-0.755z"></path>
</svg>
