<!-- Generated by IcoMoon.io -->
<svg version="1.1" xmlns="http://www.w3.org/2000/svg" width="32" height="32" viewBox="0 0 32 32">
<title>recherche</title>
<path d="M24.258 21.935l0.516-0.516c1.548-2.323 2.323-4.903 2.323-7.742 0-7.484-5.935-13.677-13.419-13.677s-13.677 6.194-13.677 13.677 6.194 13.677 13.677 13.677c1.548 0 3.097-0.258 4.645-0.774l-3.097-3.097c-0.516 0-1.032 0.258-1.548 0.258-5.419 0-10.065-4.387-10.065-10.065 0-5.419 4.387-10.065 10.065-10.065s10.065 4.387 10.065 10.065c0 3.355-1.806 6.452-4.387 8.258l10.065 10.065 2.581-2.581-7.742-7.484z"></path>
</svg>
