<!-- Generated by IcoMoon.io -->
<svg version="1.1" xmlns="http://www.w3.org/2000/svg" width="32" height="32" viewBox="0 0 32 32">
<title>rechercher-enfant-agence</title>
<path d="M7.419 4.817h20.595v1.772h-20.595v-1.772z"></path>
<path d="M9.412 1.938h16.609v1.772h-16.609v-1.772z"></path>
<path d="M17.716 17.218c1.329 0 2.325-1.107 2.325-2.325s-1.107-2.325-2.325-2.325-2.325 1.107-2.325 2.325 1.107 2.325 2.325 2.325zM16.609 14.782c0-0.664 0.554-1.107 1.107-1.107 0.664 0 1.107 0.554 1.107 1.107 0 0.664-0.554 1.107-1.107 1.107s-1.107-0.443-1.107-1.107z"></path>
<path d="M15.17 21.869h4.651v-1.218h-4.429c-0.111 0.332-0.111 0.775-0.221 1.218z"></path>
<path d="M20.484 17.772h-5.315c0 0 0 0 0 0 0.111 0.443 0.221 0.775 0.221 1.218h5.093c0.554 0 0.997 0.443 0.997 0.997v1.882h1.218v-1.772c0-1.329-0.997-2.325-2.215-2.325z"></path>
<path d="M30.118 11.349l-1.218 13.841h-13.841l1.661 1.661h12.18c0.775 0 1.439-0.664 1.55-1.439l1.329-14.173h-1.661z"></path>
<path d="M25.799 9.578v0h6.201c0-0.443-0.111-0.886-0.443-1.218s-0.664-0.554-1.107-0.554h-25.467c-0.443 0-0.886 0.221-1.107 0.554s-0.443 0.775-0.443 1.218l0.332 3.322c0.554-0.221 1.107-0.443 1.661-0.664l-0.332-2.657h20.706z"></path>
<path d="M12.18 25.080l0.221-0.332c0.775-1.107 1.107-2.436 1.107-3.765 0-3.654-2.99-6.754-6.754-6.754-3.654 0-6.754 2.99-6.754 6.754s2.99 6.754 6.754 6.754c0.775 0 1.55-0.111 2.215-0.443l-1.439-1.439c-0.221 0-0.554 0.111-0.775 0.111-2.768 0-4.983-2.215-4.983-4.983s2.215-4.983 4.983-4.983 4.983 2.215 4.983 4.983c0 1.661-0.886 3.211-2.104 4.097l4.983 4.983 1.218-1.218-3.654-3.765z"></path>
</svg>
