<!-- Generated by IcoMoon.io -->
<svg version="1.1" xmlns="http://www.w3.org/2000/svg" width="32" height="32" viewBox="0 0 32 32">
<title>rechercher-des-sommes-non-reclamees</title>
<path d="M12.944 10.427c0.539-0.36 1.258-0.539 1.977-0.539s1.438 0.18 1.798 0.36c0.539 0.18 1.079 0.719 1.618 1.258l1.438-1.798c-1.079-1.438-2.697-2.337-4.674-2.337-1.438 0-2.697 0.539-3.775 1.258-1.079 0.899-1.798 1.978-2.337 3.416h-1.978v1.618h1.618c0 0.18 0 0.36 0 0.719s0 0.539 0 0.899h-1.798v1.618h2.157c0.539 1.258 1.258 2.337 2.157 3.056 1.079 0.719 2.157 1.079 3.595 1.079 1.978 0 3.595-0.719 4.674-2.157l-1.438-1.618c-0.539 0.539-1.079 0.899-1.618 1.258-0.539 0.18-1.079 0.36-1.798 0.36-1.438 0-2.517-0.719-3.236-1.977h4.854v-1.618h-4.854c0-0.36 0-0.539 0-0.899s0-0.539 0-0.719h4.854v-1.618h-4.494c0.36-0.719 0.719-1.258 1.258-1.618z"></path>
<path d="M25.528 23.91c1.977-2.517 3.236-5.753 3.236-9.348 0-7.91-6.472-14.382-14.382-14.382s-14.382 6.472-14.382 14.382c0 7.91 6.472 14.382 14.382 14.382 2.697 0 5.393-0.719 7.551-2.157l-1.618-1.618c-1.798 0.899-3.775 1.438-5.753 1.438-6.652 0-12.045-5.393-12.045-12.045s5.393-12.045 12.045-12.045 12.045 5.393 12.045 12.045c0 3.775-1.618 7.011-4.315 9.169l8.090 8.090 1.618-1.618-6.472-6.292z"></path>
</svg>
