<!-- Generated by IcoMoon.io -->
<svg version="1.1" xmlns="http://www.w3.org/2000/svg" width="32" height="32" viewBox="0 0 32 32">
<title>recuperer-votre-argent-consigne</title>
<path d="M26.762 21.381l-21.429-0.095-5.333 6.095h1.429c0 0 1.143 0 1.714 0l28.857-0.095-5.238-5.905zM19.714 26.048l-1.524-2.381h-4.571l-1.333 2.381h-9.238c-0.095 0-0.19 0-0.286 0l3.143-3.619 20.286 0.095 2.952 3.429h-0.19l-9.238 0.095zM13.524 25.857l0.667-1.143h3.429l0.762 1.143h-4.857z"></path>
<path d="M12.095 11.952h0.857c0 0.095 0 0.19 0 0.381s0 0.286 0 0.476h-0.952v0.857h1.143c0.19 0.667 0.667 1.238 1.143 1.619 0.571 0.381 1.143 0.571 1.905 0.571 1.048 0 1.81-0.381 2.476-1.143l-0.762-0.857c-0.286 0.286-0.571 0.476-0.857 0.667-0.286 0.095-0.571 0.19-0.952 0.19-0.762 0-1.238-0.381-1.619-1.048h2.286v-0.857h-2.571c0-0.19 0-0.286 0-0.476s0-0.286 0-0.381h2.667v-0.857h-2.381c0.19-0.381 0.381-0.667 0.667-0.857s0.667-0.286 1.048-0.286c0.381 0 0.762 0.095 0.952 0.19 0.286 0.095 0.571 0.381 0.857 0.667l0.762-0.952c-0.667-0.762-1.524-1.143-2.571-1.143-0.762 0-1.333 0.19-1.905 0.667s-0.952 1.048-1.143 1.714h-1.048v0.857z"></path>
<path d="M19.714 16.714h-1.048v0.952h2v-2h-0.952z"></path>
<path d="M19.714 9.476h0.952v-2h-2v0.952h1.048z"></path>
<path d="M12.857 16.714h-1.048v-1.048h-0.952v2h2z"></path>
<path d="M11.81 8.429h1.048v-0.952h-2v2h0.952z"></path>
<path d="M24 14.143l2.952 2.762 0.762-0.762-2.857-2.762h1.429v-1.048h-3.333l-0.095 3.238h1.143z"></path>
<path d="M26.286 11.381h0.571v-6.762h-21.714v15.619h21.714v-2.095l-0.476-0.571-0.762-0.571v2h-19.238v-13.143h19.238v5.524z"></path>
</svg>
