<!-- Generated by IcoMoon.io -->
<svg version="1.1" xmlns="http://www.w3.org/2000/svg" width="32" height="32" viewBox="0 0 32 32">
<title>repondre-a-une-situation-contentieuse</title>
<path d="M29.49 19.681c-0.15-0.451-0.601-0.901-1.052-1.052-2.103-0.751-4.357 0.15-5.559 1.953l-0.901 1.502-1.803 1.202c0 0-0.15-0.15-0.15-0.15-0.451-0.601-1.202-0.901-1.953-0.901l-4.357-0.15c-0.15 0-0.3-0.15-0.451-0.3-1.052-1.052-2.704-1.653-4.507-1.653 0 0 0 0 0 0-1.953 0-3.756 0.751-5.108 2.103l-1.202 0.901c0.3 0.3 0.751 0.751 1.202 1.052l0.901-0.901c2.103-2.103 5.709-1.953 7.361-0.3 0.3 0.3 0.901 0.751 1.502 0.751l4.357 0.15c0.3 0 0.601 0.15 0.901 0.451 0.15 0.3 0.3 0.601 0.3 0.901 0 0.601-0.601 1.052-1.202 1.052h-5.559v1.653h5.559c1.502 0 2.704-1.202 2.704-2.554 0-0.15 0-0.15 0-0.3l2.854-1.953 0.451-1.202c0.601-1.502 2.404-2.254 3.906-1.653 0 0 0.15 0 0.15 0.15 0 0 0 0.15 0 0.15l-2.254 3.455c-0.901 1.352-1.803 2.404-3.005 3.455l-2.704 2.254c-0.451 0.451-1.052 0.601-1.653 0.601h-14.573v1.653h14.573c1.052 0 1.953-0.3 2.704-1.052l2.704-2.254c1.352-1.052 2.404-2.404 3.305-3.756l2.404-3.606c0.15-0.601 0.3-1.202 0.15-1.653z"></path>
<path d="M26.636 4.207h-4.958l-1.202-1.352v-0.15h-0.901l0.3-0.15c0.15-0.15 0.3-0.3 0.3-0.601v-1.953h-6.16v1.953c0 0.15 0.15 0.451 0.3 0.601l0.15 0.15h-0.901l-1.202 1.502h-4.808c0 0 0 0 0 0v1.502h1.803l-1.953 5.559h-0.901v3.455h7.361v-3.455h-0.901l-1.803-5.709h1.803l0.15-0.15 1.052-1.352h0.751v12.469l-1.803 0.751c-0.3 0.15-0.451 0.3-0.451 0.601v2.704h8.714v-2.704c0-0.3-0.15-0.601-0.451-0.601l-1.803-0.751v-12.319h0.751l1.202 1.352 0.15 0.15h1.803l-1.803 5.709h-0.901v3.455h7.211v-3.606h-0.901l-1.803-5.709h1.803zM12.514 13.671h-4.657v-1.202h4.657v1.202zM11.462 11.268h-2.554l1.352-3.756 1.202 3.756zM15.368 1.502h3.305v0.15l-0.751 0.451c-0.15 0.15-0.3 0.3-0.3 0.601h-1.352c0-0.15-0.15-0.451-0.3-0.601l-0.601-0.601zM19.875 18.329v0.751h-5.709v-0.751l1.803-0.751c0.3-0.15 0.451-0.3 0.451-0.601v-12.77h1.352v12.77c0 0.3 0.15 0.601 0.451 0.601l1.653 0.751zM23.931 7.512l1.202 3.756h-2.404l1.202-3.756zM26.185 13.671h-4.657v-1.202h4.657v1.202z"></path>
</svg>
