<!-- Generated by IcoMoon.io -->
<svg version="1.1" xmlns="http://www.w3.org/2000/svg" width="32" height="32" viewBox="0 0 32 32">
<title>rib</title>
<path d="M17.655 19.556h-3.31v1.962h3.31v-1.962z"></path>
<path d="M12.996 19.556h-3.188v1.962h3.188v-1.962z"></path>
<path d="M8.46 19.556h-3.188v1.962h3.188v-1.962z"></path>
<path d="M26.728 11.096h-11.402v1.839h11.402v-1.839z"></path>
<path d="M10.789 15.264c-0.245 0.245-0.49 0.368-0.736 0.49-0.123 0.123-0.49 0.245-0.736 0.245-0.49 0-0.981-0.245-1.226-0.613h1.962v-1.226h-2.329c0-0.123 0-0.123 0-0.245s0-0.123 0-0.123h2.329v-1.103h-2.084c0.123-0.245 0.245-0.368 0.49-0.49s0.49-0.245 0.858-0.245c0.368 0 0.613 0 0.858 0.123s0.49 0.245 0.736 0.613l0.123 0.123 0.858-1.103-0.123-0.123c-0.613-0.736-1.471-1.103-2.452-1.103-0.736 0-1.349 0.245-1.839 0.613s-0.858 0.981-1.103 1.594h-0.981v1.103h0.858c0 0 0 0.123 0 0.123 0 0.123 0 0.245 0 0.245h-0.858v1.103h1.103c0.245 0.613 0.613 1.103 1.103 1.471s1.103 0.613 1.839 0.613c0.981 0 1.716-0.368 2.329-1.103l0.123-0.123-1.103-0.858z"></path>
<path d="M22.192 19.556h-3.188v1.962h3.188v-1.962z"></path>
<path d="M26.728 19.556h-3.188v1.962h3.188v-1.962z"></path>
<path d="M26.728 14.774h-11.402v1.962h11.402v-1.962z"></path>
<path d="M0 5.456v21.088h1.839v-19.249h30.161v-1.839z"></path>
<path d="M30.161 24.582h-26.36v1.962h28.199v-17.287h-1.839z"></path>
</svg>
