<!-- Generated by IcoMoon.io -->
<svg version="1.1" xmlns="http://www.w3.org/2000/svg" width="32" height="32" viewBox="0 0 32 32">
<title>securiser-votre-activite</title>
<path d="M14.103 12.901v-1.012c0-1.138 0.885-2.024 2.024-2.024 1.012 0 1.897 0.759 2.024 1.897v0.126h1.644v-0.253c-0.126-2.024-1.771-3.542-3.668-3.542-2.15 0.126-3.794 1.771-3.794 3.794v0.885h-1.265v1.644h8.348v3.668h1.644v-5.312h-6.957z"></path>
<path d="M12.711 15.431h-1.644v5.439h9.992v-1.771h-8.348z"></path>
<path d="M17.138 16.443c0-0.506-0.506-1.012-1.012-1.012s-1.012 0.506-1.012 1.012c0 0.379 0.126 0.632 0.379 0.759v0.632c0 0.253 0.253 0.506 0.506 0.506s0.506-0.253 0.506-0.506v-0.632c0.379-0.126 0.632-0.379 0.632-0.759z"></path>
<path d="M27.889 9.233c-0.253 5.818-1.518 10.372-3.921 13.787-2.277 3.289-5.312 5.312-7.968 7.083-2.656-1.771-5.692-3.668-7.968-7.083-2.656-3.794-3.921-8.98-3.921-15.937l11.889-5.059 10.625 4.553 3.162 1.391c0-0.506 0-0.885 0-1.391 0-0.379-0.253-0.759-0.506-0.885l-12.775-5.565c-0.126-0.126-0.253-0.126-0.379-0.126 0 0-0.126 0-0.126 0s-0.126 0-0.126 0l-13.028 5.565c-0.379 0.253-0.632 0.506-0.632 0.885 0 7.589 1.391 13.281 4.3 17.581 2.53 3.794 5.945 5.945 8.98 7.842 0.253 0.126 0.379 0.126 0.506 0.126s0.379 0 0.506-0.126c3.036-1.897 6.451-4.174 8.98-7.968 2.403-3.541 3.794-8.221 4.174-14.166l-1.771-0.506z"></path>
</svg>
