<!-- Generated by IcoMoon.io -->
<svg version="1.1" xmlns="http://www.w3.org/2000/svg" width="32" height="32" viewBox="0 0 32 32">
<title>securiser-votre-projet-immobilier</title>
<path d="M11.484 23.972h1.45v-3.902h2.564v5.129h-9.923v-14.495l-1.561 0.78v15.164h13.045v-8.028h-5.575z"></path>
<path d="M12.822 10.592h-5.575v5.575h5.575v-5.575zM11.373 14.606h-2.564v-2.453h2.564v2.453z"></path>
<path d="M14.272 2.341l-8.697 4.794v-4.014h1.672v1.449l1.561-0.892v-2.118h-4.683v6.467l-4.125 2.23 0.78 1.226 13.491-7.359 13.268 7.47 0.78-1.338z"></path>
<path d="M24.307 13.045v-1.561l-1.561-0.892v3.122z"></path>
<path d="M19.512 12.153v3.122l1.561-0.78v-3.902h-5.575v5.575h1.561v-4.014z"></path>
<path d="M31.442 17.059l-5.909-3.010c-0.223-0.111-0.446-0.111-0.669 0l-5.909 3.010c-0.334 0.111-0.557 0.446-0.557 0.78 0 3.233 0.446 5.575 1.45 7.47 1.003 2.007 2.564 3.568 4.906 5.017 0.111 0.111 0.334 0.111 0.446 0.111s0.334 0 0.446-0.111c2.341-1.45 3.902-3.122 4.906-5.017s1.45-4.348 1.45-7.47c0-0.446-0.223-0.669-0.557-0.78zM30.439 18.174c0 2.676-0.446 4.683-1.226 6.355-0.78 1.561-2.007 2.899-3.902 4.125-1.895-1.226-3.122-2.564-3.902-4.125s-1.226-3.679-1.226-6.355l5.129-2.564 5.129 2.564z"></path>
<path d="M27.54 19.066l-3.233 3.233-1.338-1.561-0.78 1.003 2.118 2.453 0.334-0.446 3.679-3.679z"></path>
</svg>
