<!-- Generated by IcoMoon.io -->
<svg version="1.1" xmlns="http://www.w3.org/2000/svg" width="32" height="32" viewBox="0 0 32 32">
<title>telephone</title>
<path d="M32 25.801c0-0.726-0.726-1.452-1.452-1.815l-6.897-4.719c-1.089-0.726-2.904-0.363-3.63 0.726l-1.815 2.541c0 0 0 0 0 0.363-0.726 0-2.178 0-4.719-2.904-3.267-3.267-3.993-5.082-3.993-6.171 0 0 0 0 0 0l2.541-1.815c1.089-0.726 1.452-2.541 0.363-3.63l-4.719-6.534c-0.726-1.089-1.452-1.452-2.178-1.452s-1.452 0.363-2.178 0.726c-0.726 0.726-2.178 2.541-2.541 3.267s-0.363 1.452-0.363 1.815c-0.363 1.089-0.726 3.267 0 6.171 1.089 4.356 3.267 8.349 7.26 11.979 6.534 6.171 12.342 7.26 15.246 7.26 1.815 0 2.904-0.363 3.267-0.363 0.726 0 1.089 0 1.815-0.363 1.089-0.726 2.541-1.815 3.267-2.904 0.363-0.726 0.726-1.452 0.726-2.178v0zM25.829 29.068v0c-0.363 0-1.452 0.363-2.904 0.363-2.541 0-7.623-0.726-13.431-6.534-8.349-8.349-6.897-15.246-6.534-16.335v-0.363c0 0 0-0.363 0-0.363 0.363-0.726 1.452-2.178 2.178-2.541 0 0 0.363-0.363 0.363-0.363s0 0 0.363 0.363l4.719 6.534c0 0 0 0.363 0 0.363l-2.541 1.815h-0.726l-0.363 0.726c-0.726 2.178 0.726 4.719 4.719 8.712 2.904 2.904 5.082 3.63 6.534 3.63 0.726 0 1.452-0.363 1.815-0.363l0.363-0.363v-0.726l1.815-2.541c0 0 0.363 0 0.363 0l6.534 4.719c0.363 0 0.363 0.363 0.363 0.363s0 0-0.363 0.363v0c-0.363 0.726-1.815 1.815-2.541 2.178 0 0-0.363 0.363-0.726 0.363v0z"></path>
<path d="M14.939 8.74v0c3.993 1.089 6.897 4.356 8.349 8.349 0 0.363 0.726 0.726 1.089 0.726h0.363c0.726 0 1.089-0.726 1.089-1.452-1.815-4.719-5.445-8.349-10.164-9.801-0.363 0-0.726 0-1.089 0 0 0-0.363 0.363-0.363 0.726-0.363 0.726 0 1.452 0.726 1.452z"></path>
<path d="M15.665 4.747v0c6.171 1.452 10.89 6.534 11.979 12.342 0 0.726 0.726 1.089 1.089 1.089h0.363c0.363 0 0.726-0.363 0.726-0.363 0.363-0.363 0.363-0.726 0.363-1.089-1.452-6.897-6.897-12.705-13.794-14.157-0.363 0-0.726 0-1.089 0s-0.363 0.363-0.726 0.726c0 0.726 0.726 1.452 1.089 1.452z"></path>
</svg>
