<!-- Generated by IcoMoon.io -->
<svg version="1.1" xmlns="http://www.w3.org/2000/svg" width="32" height="32" viewBox="0 0 32 32">
<title>traitement-en-cours</title>
<path d="M23.317 4.878l-4.878-4.878-1.951 1.951 1.561 1.561h-2.341c-7.024 0.195-12.683 5.854-12.683 12.878 0 2.146 0.585 4.098 1.561 6.049l2.341-1.366c0 0 0 0 0 0-0.78-1.561-1.171-3.122-1.171-4.683 0-5.463 4.488-9.951 9.951-9.951h2.341l-1.561 1.561 1.951 1.951 4.098-4.098z"></path>
<path d="M27.415 9.366l-2.537 1.366c2.537 4.683 0.976 10.732-3.902 13.463-1.366 0.78-2.927 1.171-4.683 1.171h-2.341l2.146-2.146-1.951-1.951c0 0 0 0 0 0l-5.463 5.463 5.268 5.268 1.951-1.951-1.951-1.951h2.341c7.024 0 12.683-5.659 12.683-12.683 0-2.146-0.585-4.098-1.561-6.049z"></path>
</svg>
