<!-- Generated by IcoMoon.io -->
<svg version="1.1" xmlns="http://www.w3.org/2000/svg" width="32" height="32" viewBox="0 0 32 32">
<title>twitter</title>
<path d="M32 5.782c-1.076 0.538-2.42 0.807-3.765 1.076 1.345-0.807 2.42-2.151 2.958-3.765-1.345 0.807-2.689 1.345-4.303 1.613-1.076-1.345-2.958-2.151-4.84-2.151-3.496 0-6.454 2.958-6.454 6.723 0 0.538 0 1.076 0.269 1.613-5.647-0.269-10.487-2.958-13.714-6.992-0.538 0.807-0.807 2.151-0.807 3.227 0 2.42 1.076 4.303 2.958 5.647-1.076 0-2.151-0.269-2.958-0.807v0c0 3.227 2.151 5.916 5.378 6.723-0.807 0-1.345 0.269-1.882 0.269s-0.807 0-1.345 0c0.807 2.689 3.227 4.571 6.185 4.571-2.151 1.882-5.109 2.958-8.067 2.958-0.538 0-1.076 0-1.613 0 2.958 1.882 6.454 2.958 9.95 2.958 12.101 0 18.555-10.218 18.555-19.092 0-0.269 0-0.538 0-0.807 1.613-1.345 2.689-2.42 3.496-3.765z"></path>
</svg>
