<!-- Generated by IcoMoon.io -->
<svg version="1.1" xmlns="http://www.w3.org/2000/svg" width="32" height="32" viewBox="0 0 32 32">
<title>upload</title>
<path d="M24.407 9.627c0 0 0 0.271 0 0 0 0.271 0 0.542 0 0.542l-1.898 1.627c-0.271 0.271-0.271 0.271-0.542 0l-4.339-4.61v14.644c0 0.271-0.271 0.271-0.271 0.271h-2.441c-0.271 0-0.271-0.271-0.271-0.271v-14.644l-4.881 4.61c0 0-0.271 0-0.271 0s-0.271 0-0.271 0l-1.356-1.627c0 0 0-0.271 0-0.271s0-0.271 0-0.271l8.136-8.136c0 0 0 0 0.271 0l8.136 8.136z"></path>
<path d="M2.983 24.542v-5.424c0-0.271-0.271-0.271-0.271-0.271h-2.441c0 0-0.271 0-0.271 0.271v5.424h2.983z"></path>
<path d="M32 18.847c-0.271 0-0.271 0 0 0h-2.441c-0.271 0-0.271 0.271-0.271 0.271v8.407h-29.288v2.712c0 0.271 0.271 0.271 0.271 0.271h31.186c0.271 0 0.271-0.271 0.271-0.271l0.271-11.39c0 0.271 0 0 0 0z"></path>
</svg>
