<!-- Generated by IcoMoon.io -->
<svg version="1.1" xmlns="http://www.w3.org/2000/svg" width="32" height="32" viewBox="0 0 32 32">
<title>virement</title>
<path d="M8.176 15.295v-1.41h1.692c0.423-1.269 1.128-2.255 1.974-2.96 0.987-0.705 2.115-1.128 3.242-1.128 1.833 0 3.242 0.705 4.229 1.974l-1.269 1.551c-0.564-0.564-0.987-0.846-1.41-1.128s-0.987-0.282-1.692-0.282c-0.705 0-1.269 0.141-1.833 0.564-0.564 0.282-0.846 0.846-1.128 1.41h4.088v1.41h-4.229c0 0.141 0 0.282 0 0.564s0 0.564 0 0.846h4.37v1.41h-3.947c0.564 1.128 1.551 1.692 2.819 1.692 0.564 0 1.128-0.141 1.551-0.282 0.423-0.282 0.846-0.564 1.41-1.128l1.269 1.41c-0.987 1.269-2.396 1.974-4.088 1.974-1.128 0-2.255-0.282-3.101-0.987s-1.551-1.551-1.974-2.678h-1.974v-1.41h1.551c0-0.282 0-0.564 0-0.846s0-0.423 0-0.564h-1.551z"></path>
<path d="M21.991 16.846l6.485 0.141-1.692 1.551 1.128 1.41 4.088-3.806-3.524-3.947-1.41 1.128 1.692 1.833-6.767-0.141z"></path>
<path d="M14.238 30.238c-7.894 0-14.238-6.485-14.238-14.238s6.344-14.238 14.238-14.238c4.511 0 8.74 2.115 11.418 5.78l-1.974 1.41c-2.256-2.96-5.639-4.793-9.445-4.793-6.485 0-11.841 5.357-11.841 11.841s5.357 11.841 11.841 11.841c3.665 0 7.33-1.833 9.445-4.793l1.974 1.41c-2.678 3.524-6.907 5.78-11.418 5.78z"></path>
</svg>
