<!-- Generated by IcoMoon.io -->
<svg version="1.1" xmlns="http://www.w3.org/2000/svg" width="32" height="32" viewBox="0 0 32 32">
<title>voir-mot-de-passe</title>
<path d="M15.89 12.979c-1.45 0-2.9 1.45-2.9 3.142s1.45 3.142 2.9 3.142 2.9-1.45 2.9-3.142-1.208-3.142-2.9-3.142z"></path>
<path d="M31.841 15.396c-1.692-2.658-4.109-4.834-6.767-6.284-1.45-0.725-2.9-1.45-4.35-1.692-1.692-0.483-3.142-0.725-4.834-0.725s-3.142 0.242-4.592 0.725c-1.45 0.242-2.9 0.967-4.35 1.692-2.658 1.45-5.075 3.625-6.767 6.284-0.242 0.242-0.242 0.967 0 1.45 1.692 2.658 4.109 4.834 6.767 6.284 1.45 0.725 2.9 1.45 4.35 1.692s3.142 0.483 4.592 0.483 3.142-0.242 4.592-0.725c1.45-0.483 2.9-0.967 4.35-1.692 2.658-1.45 5.075-3.625 6.767-6.284 0.483-0.242 0.483-0.967 0.242-1.208zM8.882 21.438c-0.242-0.242-0.483-0.483-0.967-0.483-2.175-1.208-3.867-2.9-5.559-4.834 1.45-1.933 3.384-3.625 5.559-4.834 0.242-0.242 0.725-0.242 0.967-0.483-0.967 1.45-1.45 3.383-1.45 5.317s0.483 3.625 1.45 5.317zM15.89 22.888c-3.383 0-6.284-3.142-6.284-6.767 0-3.867 2.9-7.009 6.284-7.009s6.284 3.142 6.284 6.767-2.658 7.009-6.284 7.009zM23.866 20.954c-0.242 0.242-0.725 0.242-0.967 0.483 0.967-1.45 1.45-3.384 1.45-5.317s-0.483-3.867-1.45-5.317c0.242 0.242 0.725 0.242 0.967 0.483 2.175 1.208 4.109 2.9 5.559 4.834-1.45 1.933-3.384 3.625-5.559 4.834z"></path>
</svg>
