<!-- Generated by IcoMoon.io -->
<svg version="1.1" xmlns="http://www.w3.org/2000/svg" width="32" height="32" viewBox="0 0 32 32">
<title>vos-informations</title>
<path d="M15.915 0c-4.595 0-8.205 3.61-8.205 8.205s3.61 8.205 8.205 8.205 8.205-3.61 8.205-8.205-3.61-8.205-8.205-8.205zM15.915 13.949c-3.118 0-5.744-2.626-5.744-5.744s2.626-5.744 5.744-5.744c3.118 0 5.744 2.626 5.744 5.744 0.164 3.118-2.462 5.744-5.744 5.744z"></path>
<path d="M23.464 18.215h-14.769c-4.431 0-7.877 3.61-7.877 7.877v5.908h25.436v-2.462h-22.974v-3.446c0-2.954 2.462-5.415 5.415-5.415h14.769c2.954 0 5.415 2.462 5.415 5.415v5.908h2.297v-5.908c0.164-4.431-3.446-7.877-7.713-7.877z"></path>
</svg>
