<!-- Generated by IcoMoon.io -->
<svg version="1.1" xmlns="http://www.w3.org/2000/svg" width="32" height="32" viewBox="0 0 32 32">
<title>vos-utilisateurs</title>
<path d="M12.027 5.53c-3.007 0-5.369 2.362-5.369 5.369s2.362 5.369 5.369 5.369 5.369-2.362 5.369-5.369-2.362-5.369-5.369-5.369zM12.027 14.658c-2.040 0-3.758-1.718-3.758-3.758s1.718-3.758 3.758-3.758c2.040 0 3.758 1.718 3.758 3.758 0.107 2.040-1.611 3.758-3.758 3.758z"></path>
<path d="M19.114 17.45h-13.96c-2.899 0-5.154 2.362-5.154 5.154v3.866h20.94v-1.611h-19.329v-2.255c0-1.933 1.611-3.544 3.544-3.544h13.96c1.933 0 3.544 1.611 3.544 3.544v3.866h1.503v-3.866c0.107-2.899-2.255-5.154-5.047-5.154z"></path>
<path d="M22.98 6.819c-2.255 0-4.081 1.825-4.081 4.081s1.825 4.081 4.081 4.081c2.255 0 4.081-1.825 4.081-4.081s-1.825-4.081-4.081-4.081zM22.98 13.477c-1.396 0-2.577-1.181-2.577-2.577s1.181-2.577 2.577-2.577c1.396 0 2.577 1.181 2.577 2.577s-1.074 2.577-2.577 2.577z"></path>
<path d="M28.993 22.926v-1.396h-3.114c0 0.322 0.107 0.752 0.107 1.074v0.322h3.007z"></path>
<path d="M31.785 22.926h0.215v-3.007c0-2.148-1.718-3.866-3.866-3.866h-5.477c0.537 0.43 1.074 0.859 1.503 1.396h3.973c1.396 0 2.47 1.074 2.47 2.47v3.007h1.181z"></path>
</svg>
