<?xml version="1.0" encoding="utf-8"?>
<!-- Generator: Adobe Illustrator 23.0.4, SVG Export Plug-In . SVG Version: 6.00 Build 0)  -->
<svg version="1.1" xmlns="http://www.w3.org/2000/svg" xmlns:xlink="http://www.w3.org/1999/xlink" x="0px" y="0px"
	 viewBox="0 0 260 180" style="enable-background:new 0 0 260 180;" xml:space="preserve">
<style type="text/css">
	.st0{fill:#A3A3A3;}
</style>
<g id="Calque_1">
	<path class="st0" d="M101.2,105.9l13.8,13.8l54.9-54.8l-13.7-13.7C156.1,51.1,101.2,105.9,101.2,105.9z"/>
	<polygon class="st0" points="111.7,123 93.4,127.7 98,109.3 	"/>
</g>
<g id="Calque_2">
	<polygon points="147.8,95.6 143.2,100.2 145.5,102.5 150.1,97.9 154.6,102.5 147.8,109.4 150.1,111.6 156.9,104.8 161.5,109.3 
		152.4,118.4 138.6,104.7 134.1,109.3 152.4,127.6 170.7,109.3 152.4,91 	"/>
	<polygon points="116.2,83.1 102.6,69.4 111.8,60.3 116.2,64.8 109.3,71.7 111.6,74 118.5,67.1 123.1,71.7 118.5,76.3 120.8,78.6 
		125.4,74 130,69.4 111.8,51.1 93.4,69.4 111.6,87.7 	"/>
</g>
</svg>
