<?xml version="1.0" encoding="utf-8"?>
<!-- Generator: Adobe Illustrator 22.1.0, SVG Export Plug-In . SVG Version: 6.00 Build 0)  -->
<svg version="1.1" id="Calque_2_1_" xmlns="http://www.w3.org/2000/svg" xmlns:xlink="http://www.w3.org/1999/xlink" x="0px"
	 y="0px" viewBox="0 0 526.7 156.2" style="enable-background:new 0 0 526.7 156.2;" xml:space="preserve">
<style type="text/css">
	.st0{fill:#E2001A;}
	.st1{fill:#85746D;}
</style>
<path class="st0" d="M193.5,85.3h-11.7v35.1h-8.5V85.3h-11.6v-8.1h31.8V85.3z M225.3,112.2v8.1h-26.4V77.2h26.4v8.1h-17.9v9.2h16.4
	v8h-16.4v9.7H225.3z M247.2,105.4h-6.5v15h-8.5V77.2h17.3c8,0,14.4,6.4,14.4,14.3c0,5.4-3.4,10.3-8.3,12.6l9.6,16.3H256L247.2,105.4
	z M240.7,97.9h8.8c3.2,0,5.9-2.8,5.9-6.4c0-3.6-2.7-6.4-5.9-6.4h-8.8V97.9z M285.7,105.4h-6.5v15h-8.5V77.2H288
	c8,0,14.4,6.4,14.4,14.3c0,5.4-3.4,10.3-8.3,12.6l9.6,16.3h-9.2L285.7,105.4z M279.2,97.9h8.8c3.2,0,5.9-2.8,5.9-6.4
	c0-3.6-2.7-6.4-5.9-6.4h-8.8V97.9z M317.8,120.4h-8.5V77.2h8.5V120.4z M355,85.3h-11.7v35.1h-8.5V85.3h-11.6v-8.1H355V85.3z
	 M355.9,98.8c0-12.7,9.9-22.5,22.4-22.5s22.5,9.8,22.5,22.5c0,12.6-10,22.5-22.5,22.5C365.8,121.2,355.9,111.4,355.9,98.8
	 M392.3,98.8c0-8.3-6.1-14.2-13.9-14.2s-14,5.9-14,14.2c0,8.3,6.1,14.1,14,14.1C386.1,112.9,392.3,107,392.3,98.8 M415.9,120.4h-8.5
	V77.2h8.5V120.4z M439.5,105.4H433v15h-8.5V77.2h17.3c8,0,14.4,6.4,14.4,14.3c0,5.4-3.4,10.3-8.3,12.6l9.6,16.3h-9.2L439.5,105.4z
	 M433.1,97.9h8.8c3.2,0,5.9-2.8,5.9-6.4c0-3.6-2.7-6.4-5.9-6.4h-8.8V97.9z M489.5,112.2v8.1H463V77.2h26.4v8.1h-17.9v9.2h16.4v8
	h-16.4v9.7H489.5z M494.2,110.6l7.3-4.3c1.5,4,4.6,6.6,9.9,6.6c5.1,0,6.9-2.2,6.9-4.6c0-3.2-2.9-4.4-9.3-6.3
	c-6.6-1.9-13-4.7-13-12.9c0-8.1,6.8-12.8,14.2-12.8c7.1,0,12.5,3.6,15.4,9.7l-7.2,4.1c-1.5-3.3-3.9-5.6-8.3-5.6
	c-3.6,0-5.7,1.9-5.7,4.3c0,2.7,1.7,4.1,8.2,6c6.9,2.2,14.1,4.4,14.1,13.3c0,8.1-6.5,13-15.7,13C502.3,121.2,496.5,117,494.2,110.6"
	/>
<path class="st1" d="M176.9,155.6c-0.8,0.3-1.6,0.5-2.5,0.5c-1.3,0-2.5-0.2-3.5-0.7s-1.9-1.1-2.6-1.9c-0.7-0.8-1.3-1.7-1.6-2.8
	c-0.4-1.1-0.6-2.2-0.6-3.5s0.2-2.5,0.6-3.5c0.4-1.1,0.9-2,1.6-2.9c0.7-0.8,1.6-1.4,2.6-1.9s2.2-0.7,3.5-0.7c0.9,0,1.7,0.1,2.5,0.4
	c0.8,0.3,1.6,0.6,2.2,1.2c0.7,0.5,1.2,1.1,1.6,1.9c0.4,0.7,0.7,1.6,0.8,2.6H178c-0.2-1-0.6-1.7-1.3-2.2c-0.6-0.5-1.4-0.7-2.3-0.7
	c-0.8,0-1.6,0.2-2.2,0.5c-0.6,0.3-1.1,0.8-1.4,1.3c-0.4,0.5-0.6,1.2-0.8,1.9s-0.3,1.4-0.3,2.2c0,0.7,0.1,1.4,0.3,2.1
	c0.2,0.7,0.4,1.3,0.8,1.8c0.4,0.5,0.8,1,1.4,1.3c0.6,0.3,1.3,0.5,2.2,0.5c1.2,0,2.2-0.3,2.9-0.9c0.7-0.6,1.1-1.5,1.2-2.7h-3.8v-2.8
	h7.2v9.2h-2.4l-0.4-1.9C178.5,154.6,177.7,155.2,176.9,155.6 M184.9,138.7v17h3.7V149h3.8c0.9,0,1.6,0.2,2,0.6
	c0.4,0.4,0.7,1.1,0.8,2c0.1,0.7,0.2,1.4,0.2,2.1c0.1,0.7,0.2,1.4,0.4,1.9h3.8c-0.2-0.2-0.3-0.5-0.4-0.9c-0.1-0.3-0.2-0.7-0.2-1.1
	c0-0.4-0.1-0.8-0.1-1.1c0-0.4,0-0.7-0.1-1c0-0.4-0.1-0.9-0.2-1.3c-0.1-0.4-0.2-0.8-0.4-1.2s-0.4-0.7-0.7-0.9
	c-0.3-0.3-0.7-0.5-1.1-0.6v-0.1c1-0.4,1.6-0.9,2.1-1.7c0.4-0.7,0.6-1.6,0.6-2.6c0-0.7-0.1-1.3-0.3-1.8c-0.2-0.6-0.6-1.1-1-1.5
	s-1-0.8-1.6-1s-1.3-0.4-2.1-0.4h-9.2V138.7z M188.7,146.4v-4.8h4.1c0.9,0,1.5,0.2,1.9,0.6c0.4,0.4,0.6,1,0.6,1.8
	c0,0.9-0.2,1.5-0.6,1.9c-0.4,0.4-1.1,0.6-1.9,0.6h-4.1V146.4z M202,143.7c-0.4,1.1-0.6,2.3-0.6,3.5s0.2,2.4,0.6,3.5
	c0.4,1.1,0.9,2,1.6,2.8c0.7,0.8,1.6,1.4,2.6,1.9s2.2,0.7,3.5,0.7s2.5-0.2,3.5-0.7s1.9-1.1,2.6-1.9c0.7-0.8,1.3-1.7,1.6-2.8
	c0.4-1.1,0.6-2.2,0.6-3.5s-0.2-2.5-0.6-3.5c-0.4-1.1-0.9-2-1.6-2.9c-0.7-0.8-1.6-1.4-2.6-1.9s-2.2-0.7-3.5-0.7s-2.5,0.2-3.5,0.7
	s-1.9,1.1-2.6,1.9C202.9,141.7,202.4,142.6,202,143.7 M205.4,149.4c-0.2-0.7-0.3-1.4-0.3-2.1c0-0.7,0.1-1.5,0.3-2.2s0.4-1.3,0.8-1.9
	c0.4-0.5,0.8-1,1.4-1.3c0.6-0.3,1.3-0.5,2.2-0.5c0.8,0,1.6,0.2,2.1,0.5c0.6,0.3,1.1,0.8,1.4,1.3c0.4,0.5,0.6,1.2,0.8,1.9
	s0.2,1.4,0.2,2.2c0,0.7-0.1,1.4-0.2,2.1c-0.2,0.7-0.4,1.3-0.8,1.8c-0.4,0.5-0.8,1-1.4,1.3c-0.6,0.3-1.3,0.5-2.1,0.5
	s-1.6-0.2-2.2-0.5c-0.6-0.3-1.1-0.8-1.4-1.3C205.9,150.6,205.6,150,205.4,149.4 M233.3,154.4c1.3-1.1,1.9-2.8,1.9-5.1v-10.6h-3.8
	v10.6c0,1.3-0.3,2.2-0.8,2.8s-1.4,0.9-2.8,0.9c-0.8,0-1.4-0.1-1.8-0.3c-0.5-0.2-0.8-0.5-1.1-0.8c-0.3-0.3-0.4-0.7-0.5-1.2
	c-0.1-0.4-0.1-0.9-0.1-1.4v-10.6h-3.7v10.6c0,2.3,0.6,4,1.9,5.2c1.3,1.1,3.1,1.7,5.4,1.7C230.2,156.1,232,155.5,233.3,154.4
	 M238.4,138.7v17h3.7v-6.1h3.9c1.1,0,2-0.2,2.7-0.5s1.4-0.7,1.8-1.2c0.5-0.5,0.8-1.1,1-1.8s0.3-1.3,0.3-2s-0.1-1.4-0.3-2
	c-0.2-0.6-0.6-1.2-1-1.7c-0.5-0.5-1.1-0.9-1.8-1.2c-0.7-0.3-1.7-0.5-2.7-0.5H238.4z M242.2,146.7v-5.1h2.9c0.4,0,0.8,0,1.2,0.1
	c0.4,0.1,0.7,0.2,1.1,0.4c0.3,0.2,0.5,0.4,0.7,0.8c0.2,0.3,0.3,0.8,0.3,1.3s-0.1,1-0.3,1.3c-0.2,0.3-0.4,0.6-0.7,0.8
	c-0.3,0.2-0.7,0.3-1.1,0.4c-0.4,0.1-0.8,0.1-1.2,0.1h-2.9V146.7z M254.4,138.7v17h12.9v-3.2h-9.2v-4.2h8.3v-2.9h-8.3v-3.7h9v-3.2
	h-12.7V138.7z M288.4,143.2c0.2,0.4,0.4,0.8,0.4,1.2h3.6c-0.1-1-0.4-1.9-0.8-2.6c-0.4-0.8-1-1.4-1.6-1.9c-0.7-0.5-1.4-0.9-2.2-1.2
	c-0.8-0.3-1.7-0.4-2.7-0.4c-1.3,0-2.5,0.2-3.5,0.7s-1.9,1.1-2.6,1.9c-0.7,0.8-1.3,1.8-1.6,2.9c-0.4,1.1-0.6,2.3-0.6,3.5
	s0.2,2.4,0.6,3.5s0.9,2,1.6,2.8s1.6,1.4,2.6,1.9s2.2,0.7,3.5,0.7c1,0,2-0.2,2.9-0.5s1.6-0.8,2.3-1.4c0.7-0.6,1.2-1.3,1.6-2.2
	s0.6-1.8,0.7-2.9H289c-0.1,1.1-0.5,2.1-1.2,2.8c-0.6,0.7-1.5,1.1-2.7,1.1c-0.8,0-1.6-0.2-2.2-0.5s-1.1-0.8-1.4-1.3
	c-0.4-0.5-0.6-1.1-0.8-1.8c-0.2-0.7-0.2-1.4-0.2-2.1c0-0.7,0.1-1.5,0.2-2.2c0.2-0.7,0.4-1.3,0.8-1.9c0.4-0.5,0.8-1,1.4-1.3
	s1.3-0.5,2.2-0.5c0.5,0,0.9,0.1,1.3,0.2c0.4,0.2,0.8,0.4,1.1,0.6C287.9,142.5,288.2,142.9,288.4,143.2 M299.8,138.7l-6.4,17h3.8
	l1.3-3.8h6.4l1.3,3.8h3.9l-6.4-17H299.8z M299.4,149.1l2.2-6.3h0.1l2.1,6.3H299.4z M315.3,138.7h-3.7v17h3.7V138.7z M321.4,151.5
	c-0.2-0.4-0.3-0.9-0.3-1.5h-3.6c0,1.1,0.2,2,0.6,2.7c0.4,0.8,0.9,1.4,1.6,1.9s1.5,0.9,2.3,1.1c0.9,0.2,1.8,0.3,2.7,0.3
	c1.2,0,2.2-0.1,3.1-0.4c0.9-0.3,1.6-0.6,2.2-1.1s1-1.1,1.3-1.7c0.3-0.7,0.5-1.4,0.5-2.2c0-1-0.2-1.7-0.6-2.3s-0.9-1.1-1.4-1.5
	c-0.6-0.4-1.1-0.6-1.7-0.8s-1-0.3-1.3-0.3c-1.1-0.3-1.9-0.5-2.6-0.7s-1.2-0.4-1.5-0.5c-0.4-0.2-0.6-0.4-0.8-0.6
	c-0.1-0.2-0.2-0.5-0.2-0.8c0-0.4,0.1-0.7,0.2-0.9c0.2-0.2,0.4-0.4,0.6-0.6c0.2-0.2,0.5-0.3,0.8-0.3c0.3-0.1,0.6-0.1,0.9-0.1
	c0.5,0,0.9,0,1.3,0.1s0.7,0.2,1,0.4s0.5,0.5,0.7,0.8s0.3,0.8,0.3,1.3h3.6c0-1-0.2-1.8-0.6-2.5s-0.9-1.3-1.5-1.7s-1.4-0.8-2.2-1
	c-0.8-0.2-1.7-0.3-2.6-0.3c-0.8,0-1.5,0.1-2.3,0.3s-1.5,0.5-2.1,1c-0.6,0.4-1.1,1-1.5,1.6s-0.6,1.4-0.6,2.3c0,0.8,0.1,1.4,0.4,2
	c0.3,0.5,0.7,1,1.2,1.4s1,0.7,1.6,0.9s1.2,0.4,1.9,0.6c0.6,0.2,1.2,0.3,1.8,0.5c0.6,0.1,1.1,0.3,1.6,0.5s0.9,0.4,1.2,0.7
	c0.3,0.3,0.4,0.7,0.4,1.1c0,0.4-0.1,0.8-0.3,1.1c-0.2,0.3-0.5,0.5-0.8,0.7s-0.7,0.3-1.1,0.3c-0.4,0.1-0.7,0.1-1.1,0.1
	c-0.5,0-1-0.1-1.4-0.2c-0.5-0.1-0.9-0.3-1.2-0.6C321.9,152.2,321.6,151.9,321.4,151.5 M336.9,151.5c-0.2-0.4-0.3-0.9-0.3-1.5H333
	c0,1.1,0.2,2,0.6,2.7c0.4,0.8,0.9,1.4,1.6,1.9s1.5,0.9,2.3,1.1c0.9,0.2,1.8,0.3,2.7,0.3c1.2,0,2.2-0.1,3.1-0.4
	c0.9-0.3,1.6-0.6,2.2-1.1s1-1.1,1.4-1.7c0.3-0.7,0.5-1.4,0.5-2.2c0-1-0.2-1.7-0.6-2.3s-0.9-1.1-1.4-1.5c-0.6-0.4-1.1-0.6-1.7-0.8
	s-1-0.3-1.3-0.3c-1.1-0.3-1.9-0.5-2.6-0.7s-1.2-0.4-1.6-0.5c-0.4-0.2-0.6-0.4-0.8-0.6c-0.1-0.2-0.2-0.5-0.2-0.8
	c0-0.4,0.1-0.7,0.2-0.9c0.2-0.2,0.4-0.4,0.6-0.6c0.2-0.2,0.5-0.3,0.8-0.3c0.3-0.1,0.6-0.1,0.9-0.1c0.5,0,0.9,0,1.3,0.1
	s0.7,0.2,1,0.4s0.5,0.5,0.7,0.8s0.3,0.8,0.3,1.3h3.6c0-1-0.2-1.8-0.6-2.5s-0.9-1.3-1.5-1.7s-1.4-0.8-2.2-1c-0.8-0.2-1.7-0.3-2.6-0.3
	c-0.8,0-1.5,0.1-2.3,0.3s-1.5,0.5-2.1,1c-0.6,0.4-1.1,1-1.5,1.6s-0.6,1.4-0.6,2.3c0,0.8,0.1,1.4,0.4,2c0.3,0.5,0.7,1,1.2,1.4
	s1,0.7,1.6,0.9s1.2,0.4,1.9,0.6c0.6,0.2,1.2,0.3,1.8,0.5c0.6,0.1,1.1,0.3,1.6,0.5s0.9,0.4,1.2,0.7c0.3,0.3,0.4,0.7,0.4,1.1
	c0,0.4-0.1,0.8-0.3,1.1c-0.2,0.3-0.5,0.5-0.8,0.7s-0.7,0.3-1.1,0.3c-0.4,0.1-0.7,0.1-1.1,0.1c-0.5,0-1-0.1-1.4-0.2
	c-0.5-0.1-0.9-0.3-1.2-0.6C337.4,152.2,337.1,151.9,336.9,151.5 M349.5,138.7v17h12.9v-3.2h-9.2v-4.2h8.3v-2.9h-8.3v-3.7h9v-3.2
	h-12.7V138.7z M372.6,138.7v17h7.4c1.3,0,2.4-0.2,3.4-0.7c1-0.4,1.8-1,2.4-1.8s1.1-1.7,1.4-2.7c0.3-1.1,0.5-2.2,0.5-3.4
	c0-1.4-0.2-2.6-0.6-3.7s-0.9-1.9-1.6-2.6c-0.7-0.7-1.5-1.2-2.5-1.6c-1-0.4-2-0.5-3.1-0.5H372.6z M376.4,152.6v-10.7h2.7
	c0.9,0,1.7,0.1,2.3,0.4c0.6,0.3,1.1,0.6,1.5,1.1s0.7,1.1,0.8,1.8c0.2,0.7,0.2,1.5,0.2,2.3c0,0.9-0.1,1.7-0.4,2.4
	c-0.2,0.7-0.6,1.2-1,1.6c-0.4,0.4-0.8,0.7-1.4,0.9c-0.5,0.2-1,0.3-1.6,0.3h-3.1V152.6z M390.3,138.7v17h12.9v-3.2H394v-4.2h8.3v-2.9
	H394v-3.7h9v-3.2h-12.7V138.7z M408.7,151.5c-0.2-0.4-0.3-0.9-0.3-1.5h-3.6c0,1.1,0.2,2,0.6,2.7c0.4,0.8,0.9,1.4,1.6,1.9
	s1.5,0.9,2.3,1.1c0.9,0.2,1.8,0.3,2.7,0.3c1.2,0,2.2-0.1,3.1-0.4c0.9-0.3,1.6-0.6,2.2-1.1s1-1.1,1.3-1.7c0.3-0.7,0.5-1.4,0.5-2.2
	c0-1-0.2-1.7-0.6-2.3s-0.9-1.1-1.4-1.5c-0.6-0.4-1.1-0.6-1.7-0.8s-1-0.3-1.3-0.3c-1.1-0.3-1.9-0.5-2.6-0.7s-1.2-0.4-1.6-0.5
	c-0.4-0.2-0.6-0.4-0.8-0.6c-0.1-0.2-0.2-0.5-0.2-0.8c0-0.4,0.1-0.7,0.2-0.9c0.2-0.2,0.4-0.4,0.6-0.6c0.2-0.2,0.5-0.3,0.8-0.3
	c0.3-0.1,0.6-0.1,0.9-0.1c0.5,0,0.9,0,1.3,0.1s0.7,0.2,1,0.4s0.5,0.5,0.7,0.8s0.3,0.8,0.3,1.3h3.6c0-1-0.2-1.8-0.6-2.5
	s-0.9-1.3-1.5-1.7s-1.4-0.8-2.2-1c-0.8-0.2-1.7-0.3-2.6-0.3c-0.8,0-1.5,0.1-2.3,0.3s-1.5,0.5-2.1,1c-0.6,0.4-1.1,1-1.5,1.6
	s-0.6,1.4-0.6,2.3c0,0.8,0.1,1.4,0.4,2c0.3,0.5,0.7,1,1.2,1.4s1,0.7,1.6,0.9s1.2,0.4,1.9,0.6c0.6,0.2,1.2,0.3,1.8,0.5
	c0.6,0.1,1.1,0.3,1.6,0.5s0.9,0.4,1.2,0.7c0.3,0.3,0.4,0.7,0.4,1.1c0,0.4-0.1,0.8-0.3,1.1c-0.2,0.3-0.5,0.5-0.8,0.7
	s-0.7,0.3-1.1,0.3c-0.4,0.1-0.7,0.1-1.1,0.1c-0.5,0-1-0.1-1.4-0.2c-0.5-0.1-0.9-0.3-1.2-0.6C409.1,152.2,408.9,151.9,408.7,151.5
	 M428.9,138.7v17h7.3c1.3,0,2.4-0.2,3.4-0.7c1-0.4,1.8-1,2.4-1.8s1.1-1.7,1.4-2.7c0.3-1.1,0.5-2.2,0.5-3.4c0-1.4-0.2-2.6-0.6-3.7
	s-0.9-1.9-1.6-2.6c-0.7-0.7-1.5-1.2-2.5-1.6c-0.9-0.4-2-0.5-3.1-0.5H428.9z M432.7,152.6v-10.7h2.7c0.9,0,1.7,0.1,2.3,0.4
	c0.6,0.3,1.1,0.6,1.5,1.1s0.7,1.1,0.8,1.8c0.2,0.7,0.2,1.5,0.2,2.3c0,0.9-0.1,1.7-0.4,2.4c-0.2,0.7-0.6,1.2-1,1.6
	c-0.4,0.4-0.8,0.7-1.4,0.9c-0.5,0.2-1,0.3-1.6,0.3h-3.1V152.6z M446.6,138.7v17h12.9v-3.2h-9.2v-4.2h8.3v-2.9h-8.3v-3.6h9v-3.2
	L446.6,138.7L446.6,138.7z M457.2,132.9l-3.9,4.2h-2.4l2.5-4.2H457.2z M462.1,138.7v17h3.7v-6.1h3.9c1.1,0,2-0.2,2.7-0.5
	s1.4-0.7,1.8-1.2c0.5-0.5,0.8-1.1,1-1.8s0.3-1.3,0.3-2s-0.1-1.4-0.3-2c-0.2-0.6-0.6-1.2-1-1.7c-0.5-0.5-1.1-0.9-1.8-1.2
	c-0.8-0.3-1.7-0.5-2.7-0.5H462.1z M465.8,146.7v-5.1h2.9c0.4,0,0.8,0,1.2,0.1c0.4,0.1,0.7,0.2,1.1,0.4c0.3,0.2,0.5,0.4,0.7,0.8
	c0.2,0.3,0.3,0.8,0.3,1.3s-0.1,1-0.3,1.3c-0.2,0.3-0.4,0.6-0.7,0.8c-0.3,0.2-0.7,0.3-1.1,0.4c-0.4,0.1-0.8,0.1-1.2,0.1h-2.9V146.7z
	 M477.8,143.7c-0.4,1.1-0.6,2.3-0.6,3.5s0.2,2.4,0.6,3.5c0.4,1.1,0.9,2,1.6,2.8c0.7,0.8,1.6,1.4,2.6,1.9s2.2,0.7,3.5,0.7
	s2.5-0.2,3.5-0.7s1.9-1.1,2.6-1.9c0.7-0.8,1.3-1.7,1.6-2.8c0.4-1.1,0.6-2.2,0.6-3.5s-0.2-2.5-0.6-3.5c-0.4-1.1-0.9-2-1.6-2.9
	c-0.7-0.8-1.6-1.4-2.6-1.9s-2.2-0.7-3.5-0.7s-2.5,0.2-3.5,0.7s-1.9,1.1-2.6,1.9C478.8,141.7,478.2,142.6,477.8,143.7 M481.3,149.4
	c-0.2-0.7-0.2-1.4-0.2-2.1c0-0.7,0.1-1.5,0.2-2.2c0.2-0.7,0.4-1.3,0.8-1.9c0.4-0.5,0.8-1,1.4-1.3c0.6-0.3,1.3-0.5,2.1-0.5
	s1.6,0.2,2.2,0.5c0.6,0.3,1.1,0.8,1.4,1.3c0.4,0.5,0.6,1.2,0.8,1.9s0.2,1.4,0.2,2.2c0,0.7-0.1,1.4-0.2,2.1c-0.2,0.7-0.4,1.3-0.8,1.8
	c-0.4,0.5-0.8,1-1.4,1.3c-0.6,0.3-1.3,0.5-2.2,0.5c-0.8,0-1.6-0.2-2.1-0.5c-0.6-0.3-1.1-0.8-1.4-1.3
	C481.7,150.6,481.4,150,481.3,149.4 M484.1,133.8l-2.6,3.4h2.6l1.5-1.9l1.5,1.9h2.8l-2.6-3.4H484.1z M500.3,141.8v13.9h3.8v-13.9
	h5.1v-3.2h-14v3.2H500.3z M514,151.5c-0.2-0.4-0.3-0.9-0.3-1.5h-3.6c0,1.1,0.2,2,0.6,2.7c0.4,0.8,0.9,1.4,1.6,1.9
	c0.7,0.5,1.5,0.9,2.3,1.1c0.9,0.2,1.8,0.3,2.7,0.3c1.2,0,2.2-0.1,3.1-0.4c0.9-0.3,1.6-0.6,2.2-1.1c0.6-0.5,1-1.1,1.4-1.7
	c0.3-0.7,0.5-1.4,0.5-2.2c0-1-0.2-1.7-0.6-2.3c-0.4-0.6-0.9-1.1-1.4-1.5c-0.6-0.4-1.1-0.6-1.7-0.8c-0.6-0.2-1-0.3-1.3-0.3
	c-1.1-0.3-1.9-0.5-2.6-0.7c-0.7-0.2-1.2-0.4-1.6-0.5c-0.4-0.2-0.6-0.4-0.8-0.6c-0.1-0.2-0.2-0.5-0.2-0.8c0-0.4,0.1-0.7,0.2-0.9
	c0.2-0.2,0.4-0.4,0.6-0.6c0.2-0.2,0.5-0.3,0.8-0.3c0.3-0.1,0.6-0.1,0.9-0.1c0.5,0,0.9,0,1.3,0.1c0.4,0.1,0.7,0.2,1,0.4
	s0.5,0.5,0.7,0.8s0.3,0.8,0.3,1.3h3.6c0-1-0.2-1.8-0.6-2.5c-0.4-0.7-0.9-1.3-1.5-1.7s-1.4-0.8-2.2-1s-1.7-0.3-2.6-0.3
	c-0.8,0-1.5,0.1-2.3,0.3s-1.5,0.5-2.1,1c-0.6,0.4-1.1,1-1.5,1.6s-0.6,1.4-0.6,2.3c0,0.8,0.2,1.4,0.4,2c0.3,0.5,0.7,1,1.2,1.4
	s1,0.7,1.6,0.9s1.2,0.4,1.9,0.6c0.6,0.2,1.2,0.3,1.8,0.5c0.6,0.1,1.1,0.3,1.6,0.5s0.9,0.4,1.2,0.7s0.4,0.7,0.4,1.1
	c0,0.4-0.1,0.8-0.3,1.1s-0.5,0.5-0.8,0.7s-0.7,0.3-1.1,0.3c-0.4,0.1-0.7,0.1-1.1,0.1c-0.5,0-1-0.1-1.4-0.2c-0.5-0.1-0.9-0.3-1.2-0.6
	C514.5,152.2,514.2,151.9,514,151.5"/>
<path class="st1" d="M455.8,16.2v42.5h-3v-7c-2.5,4.7-7.2,7.7-13.1,7.7c-8.7,0-15.7-6.9-15.7-15.9s7-15.9,15.7-15.9
	c5.9,0,10.6,3,13.1,7.7V16.2H455.8z M452.7,43.6c0-7.2-5.7-12.9-12.9-12.9c-7.2,0-12.9,5.7-12.9,12.9s5.7,12.9,12.9,12.9
	C447.1,56.5,452.7,50.8,452.7,43.6 M496,43.7c0,0.5-0.1,1-0.1,1.5h-27.5c0.7,6.9,6,11.4,12.9,11.4c5,0,8.8-2.3,10.5-5.5l2.7,1.6
	c-2.5,4.1-7.2,6.9-13.3,6.9c-9.4,0-16-6.7-16-15.9c0-8.9,6.4-15.9,15.7-15.9C490.2,27.7,496,35.4,496,43.7 M468.4,42.2h24.4
	c-0.7-7.4-5.9-11.5-11.9-11.5C474,30.6,469,35.4,468.4,42.2 M525.3,50.8c0,5-4.4,8.6-10.9,8.6c-6.1,0-10.1-2.9-11.6-6.7l2.6-1.5
	c1.1,3.3,4.4,5.3,8.9,5.3c4.3,0,7.8-1.9,7.8-5.7c0-8.3-18.4-3.5-18.4-14.5c0-4.8,4.1-8.6,10.3-8.6c4.9,0,8.7,2.4,10.3,6.1l-2.3,1.4
	c-1.3-3.2-4.4-4.6-7.8-4.6c-4,0-7.3,2.1-7.3,5.7C506.9,44.5,525.3,39.7,525.3,50.8 M194.9,47.2c0,6.4-5.2,11.6-11.6,11.6H165V16.3
	h16.9c6.2,0,11.2,5,11.2,11.2c0,4.1-2.2,7.5-5.5,9.3C191.8,38.4,194.9,42.3,194.9,47.2 M168.2,19.3v16.3h13.7c4.4,0,7.9-3.6,7.9-8.1
	s-3.6-8.1-7.9-8.1L168.2,19.3L168.2,19.3z M191.6,47.2c0-4.7-3.8-8.6-8.4-8.6h-15.1v17.1h15.1C187.9,55.7,191.6,51.9,191.6,47.2
	 M228.4,48h-21.3L203,58.8h-3.4l16.5-42.5h3.4l16.4,42.5h-3.4L228.4,48z M227.2,44.9l-9.5-24.7l-9.5,24.7H227.2z M274.4,16.3v42.5
	h-2.9l-25.1-36.5v36.5h-3.2V16.3h2.8l25.1,36.5V16.3H274.4z M336.3,44.6V16.3h3.2v28.3c0,6.9,4.3,11.8,12.3,11.8
	c8.1,0,12.4-4.9,12.4-11.8V16.3h3.2v28.3c0,9-6.2,14.9-15.6,14.9C342.5,59.4,336.3,53.6,336.3,44.6 M402.7,55.7v3h-24.1V16.3h24.1v3
	h-20.9v16.5h19.4v3h-19.4v16.9H402.7z M327.6,37.5c0-12.1-9.8-21.9-21.9-21.9s-21.9,9.8-21.9,21.9s9.8,21.9,21.9,21.9
	c3.7,0,7.3-0.9,10.3-2.6l-2.3-2.3c-2.4,1.1-5.1,1.8-8,1.8c-10.4,0-18.7-8.4-18.7-18.8s8.3-18.8,18.7-18.8c10.4,0,18.7,8.4,18.7,18.8
	c0,5.3-2.2,10.1-5.7,13.6l-9.8-9.5l-2.2,2l19.7,19.6l2.2-2l-7.7-7.9C325,49.3,327.6,43.7,327.6,37.5"/>
<path class="st0" d="M16.1,128.2l-16.1-9V36.5l40.7-22.7L57.2,23L16.1,45.9V128.2z M115,100.6l16-8.9V36.5L65.5,0L49,9.2l66,36.7
	V100.6z M65.5,137.3l-41.4-23.1v18.4l41.4,23.1l65.5-36.5v-18.4L65.5,137.3z"/>
</svg>
